<?xml version="1.0" encoding="UTF-8" standalone="no"?>
<!DOCTYPE svg PUBLIC "-//W3C//DTD SVG 1.1//EN"
 "http://www.w3.org/Graphics/SVG/1.1/DTD/svg11.dtd">
<!-- Generated by graphviz version 9.0.0 (20230911.1827)
 -->
<!-- Pages: 1 -->
<svg width="926pt" height="1004pt"
 viewBox="0.00 0.00 926.00 1004.00" xmlns="http://www.w3.org/2000/svg" xmlns:xlink="http://www.w3.org/1999/xlink">
<g id="graph0" class="graph" transform="scale(1 1) rotate(0) translate(4 1000)">
<polygon fill="white" stroke="none" points="-4,4 -4,-1000 922,-1000 922,4 -4,4"/>
<text text-anchor="start" x="252.75" y="-10.5" font-family="Arial" font-size="10.00">Dbquity CLI v0.10.9637</text>
<text text-anchor="start" x="358.5" y="-10.5" font-family="Arial" font-size="10.00"> &#160;&#160;&#160;dot WebWordleDictionary * +m &#45;z &#45;r &#160;&#160;&#160;</text>
<text text-anchor="start" x="543.75" y="-10.5" font-family="Arial" font-size="10.00">2025&#45;08&#45;18 22:18:39 +02:00</text>
<g id="clust1" class="cluster">
<title>cluster_18_WebWordle</title>
<g id="a_clust1"><a xlink:href="WebWordle.dbquity" xlink:title="model.dbquity.com/examples:WebWordle &#45;&gt; WebWordle.dbquity" target="_parent">
<polygon fill="none" stroke="black" points="8,-36 8,-988 910,-988 910,-36 8,-36"/>
<text text-anchor="middle" x="459" y="-974.5" font-family="Arial" font-size="10.00">site model.dbquity.com/examples:WebWordle v1.0.0</text>
</a>
</g>
</g>
<g id="clust2" class="cluster">
<title>cluster_21_Wordle</title>
<g id="a_clust2"><a xlink:href="WebWordle.dbquity#:~:text=area%20Wordle" xlink:title="model.dbquity.com/examples:WebWordle\Wordle &#45;&gt; WebWordle.dbquity#:~:text=area%20Wordle" target="_parent">
<polygon fill="none" stroke="black" points="16,-44 16,-960 902,-960 902,-44 16,-44"/>
<text text-anchor="start" x="432.75" y="-946.5" font-family="Arial" font-size="10.00">area Wordle</text>
</a>
</g>
</g>
<g id="clust3" class="cluster">
<title>cluster_49_Game</title>
<g id="a_clust3"><a xlink:href="WebWordle.dbquity#:~:text=entity%20Game" xlink:title="model.dbquity.com/examples:WebWordle\Wordlecluster_49_Gameame &#45;&gt; WebWordle.dbquity#:~:text=entity%20Game" target="_parent">
<polygon fill="none" stroke="black" stroke-dasharray="1,5" points="440,-52 440,-932 894,-932 894,-52 440,-52"/>
<text text-anchor="start" x="859.75" y="-58.5" font-family="Arial" font-size="10.00">Game</text>
</a>
</g>
</g>
<g id="clust4" class="cluster">
<title>cluster_63_Attempt</title>
<g id="a_clust4"><a xlink:href="WebWordle.dbquity#:~:text=entity%20Attempt" xlink:title="model.dbquity.com/examples:WebWordle\Wordlecluster_63_Attemptame\Attempt &#45;&gt; WebWordle.dbquity#:~:text=entity%20Attempt" target="_parent">
<polygon fill="none" stroke="black" stroke-dasharray="1,5" points="448,-80 448,-452 668,-452 668,-80 448,-80"/>
<text text-anchor="start" x="625.5" y="-86.5" font-family="Arial" font-size="10.00">Attempt</text>
</a>
</g>
</g>
<g id="clust5" class="cluster">
<title>cluster_91_KeyboardRow</title>
<g id="a_clust5"><a xlink:href="WebWordle.dbquity#:~:text=entity%20KeyboardRow" xlink:title="model.dbquity.com/examples:WebWordle\Wordlecluster_91_KeyboardRowame\KeyboardRow &#45;&gt; WebWordle.dbquity#:~:text=entity%20KeyboardRow" target="_parent">
<polygon fill="none" stroke="black" stroke-dasharray="1,5" points="676,-97 676,-435 886,-435 886,-97 676,-97"/>
<text text-anchor="start" x="818" y="-103.5" font-family="Arial" font-size="10.00">KeyboardRow</text>
</a>
</g>
</g>
<!-- _18_Wordle -->
<g id="node1" class="node">
<title>_18_Wordle</title>
<g id="a_node1"><a xlink:href="WebWordle.dbquity#:~:text=area%20Wordle" xlink:title="model.dbquity.com/examples:WebWordle\Wordle &#45;&gt; WebWordle.dbquity#:~:text=area%20Wordle" target="_parent">
<polygon fill="none" stroke="black" points="431.88,-807 220.12,-807 220.12,-609 431.88,-609 431.88,-807"/>
<polyline fill="none" stroke="black" points="228.12,-773 423.88,-773"/>
<text text-anchor="start" x="311.38" y="-790.5" font-family="Arial" font-size="10.00">«area»</text>
<text text-anchor="start" x="310.62" y="-778.5" font-family="Arial" font-size="10.00">Wordle</text>
<polyline fill="none" stroke="black" points="423.88,-773 228.12,-773"/>
<text text-anchor="start" x="231.12" y="-761.5" font-family="Arial" font-size="10.00">»|text WebPage</text>
<text text-anchor="start" x="231.12" y="-751.5" font-family="Arial" font-size="10.00"> &#160;</text>
<text text-anchor="start" x="237.12" y="-751.5" font-family="Arial" font-style="italic" font-size="10.00">&quot;https://dbquity.com&quot;</text>
<text text-anchor="start" x="231.12" y="-741.5" font-family="Arial" font-size="10.00">»|integer LetterCount &#160;&#160;&#160;&#160;&#160;&#160;&#160;&#160;&#160;&#160;&#160;</text>
<text text-anchor="start" x="231.12" y="-731.5" font-family="Arial" font-size="10.00"> &#160;&#160;{. in 4..8}</text>
<text text-anchor="start" x="231.12" y="-721.5" font-family="Arial" font-size="10.00"> &#160;</text>
<text text-anchor="start" x="237.12" y="-721.5" font-family="Arial" font-style="italic" font-size="10.00">5</text>
<text text-anchor="start" x="231.12" y="-711.5" font-family="Arial" font-size="10.00">»|link GameDictionary : Dictionary</text>
<text text-anchor="start" x="231.12" y="-701.5" font-family="Arial" font-size="10.00"> &#160;</text>
<text text-anchor="start" x="237.12" y="-701.5" font-family="Arial" font-style="italic" font-size="10.00">Wordle.get(Dictionary: &quot;Merriam&#45;Webs…</text>
<polyline fill="none" stroke="black" points="423.88,-697 228.12,-697"/>
<text text-anchor="start" x="231.12" y="-684.5" font-family="Arial" font-size="10.00">IsQualified(word)</text>
<text text-anchor="start" x="231.12" y="-672.5" font-family="Arial" font-size="10.00"> &#160;if word.length() &gt; 3 then word.all(.…</text>
<polyline fill="none" stroke="black" points="423.88,-667 228.12,-667"/>
<text text-anchor="start" x="231.12" y="-654.5" font-family="Arial" font-size="10.00">[Games.last(G…]OpenRecentGame()</text>
<text text-anchor="start" x="231.12" y="-642.5" font-family="Arial" font-size="10.00"> &#160;Games.last(Guessed = nil).open()</text>
<text text-anchor="start" x="231.12" y="-630.5" font-family="Arial" font-size="10.00">[WebPage.isur…]Start()✓</text>
<text text-anchor="start" x="231.12" y="-618.5" font-family="Arial" font-size="10.00"> &#160;candidates: WebPage.download().aswor…</text>
</a>
</g>
</g>
<!-- _21_Dictionary -->
<g id="node2" class="node">
<title>_21_Dictionary</title>
<g id="a_node2"><a xlink:href="WebWordle.dbquity#:~:text=entity%20Dictionary" xlink:title="model.dbquity.com/examples:WebWordle\Wordle\Dictionary &#45;&gt; WebWordle.dbquity#:~:text=entity%20Dictionary" target="_parent">
<polygon fill="none" stroke="black" points="431.62,-395 206.38,-395 206.38,-157 431.62,-157 431.62,-395"/>
<polyline fill="none" stroke="black" points="214.38,-361 423.62,-361"/>
<text text-anchor="start" x="301.75" y="-378.5" font-family="Arial" font-size="10.00">«entity»</text>
<text text-anchor="start" x="296.12" y="-366.5" font-family="Arial" font-size="10.00">|Dictionary</text>
<polyline fill="none" stroke="black" points="423.62,-361 214.38,-361"/>
<text text-anchor="start" x="217.38" y="-348.5" font-family="Arial" font-size="10.00" fill="gray">Den Danske Ordbog;dansk;https://ordn…</text>
<text text-anchor="start" x="217.38" y="-336.5" font-family="Arial" font-size="10.00" fill="gray">Merriam&#45;Webster;American English;htt…</text>
<polyline fill="none" stroke="black" points="423.62,-331 214.38,-331"/>
<text text-anchor="start" x="217.38" y="-318.5" font-family="Arial" font-size="10.00">derived</text>
<text text-anchor="start" x="217.38" y="-306.5" font-family="Arial" font-size="10.00">importance: additional</text>
<text text-anchor="start" x="217.38" y="-294.5" font-family="Arial" font-size="10.00">collection: Dictionaries</text>
<text text-anchor="start" x="217.38" y="-282.5" font-family="Arial" font-size="10.00">identity: Name</text>
<polyline fill="none" stroke="black" points="423.62,-277 214.38,-277"/>
<text text-anchor="start" x="217.38" y="-265.5" font-family="Arial" font-size="10.00">=text Name &#160;&#160;&#160;&#160;&#160;&#160;&#160;&#160;&#160;&#160;&#160;</text>
<text text-anchor="start" x="217.38" y="-255.5" font-family="Arial" font-size="10.00"> &#160;&#160;[&quot;Den Danske Ordbog&quot;; &quot;Merriam&#45;Webste…]</text>
<text text-anchor="start" x="217.38" y="-245.5" font-family="Arial" font-size="10.00">|text Language</text>
<text text-anchor="start" x="217.38" y="-235.5" font-family="Arial" font-size="10.00"> &#160;</text>
<text text-anchor="start" x="223.38" y="-235.5" font-family="Arial" font-style="italic" font-size="10.00">case(Name, &quot;Den Danske Ordbog&quot;: &quot;dan…</text>
<text text-anchor="start" x="410.88" y="-235.5" font-family="Arial" font-size="10.00">…</text>
<text text-anchor="start" x="217.38" y="-225.5" font-family="Arial" font-size="10.00">|text LookupUrl</text>
<text text-anchor="start" x="217.38" y="-215.5" font-family="Arial" font-size="10.00"> &#160;</text>
<text text-anchor="start" x="223.38" y="-215.5" font-family="Arial" font-style="italic" font-size="10.00">case(Name,</text>
<text text-anchor="start" x="275.88" y="-215.5" font-family="Arial" font-size="10.00">…</text>
<text text-anchor="start" x="217.38" y="-205.5" font-family="Arial" font-size="10.00">|text FoundFragment</text>
<text text-anchor="start" x="217.38" y="-195.5" font-family="Arial" font-size="10.00"> &#160;</text>
<text text-anchor="start" x="223.38" y="-195.5" font-family="Arial" font-style="italic" font-size="10.00">case(Name,</text>
<text text-anchor="start" x="275.88" y="-195.5" font-family="Arial" font-size="10.00">…</text>
<polyline fill="none" stroke="black" points="423.62,-191 214.38,-191"/>
<text text-anchor="start" x="217.38" y="-178.5" font-family="Arial" font-size="10.00">Contains(word)</text>
<text text-anchor="start" x="217.38" y="-166.5" font-family="Arial" font-size="10.00"> &#160;LookupUrl.replace(&quot;&lt;word&gt;&quot;, word).do…</text>
</a>
</g>
</g>
<!-- _18_Wordle&#45;&#45;_21_Dictionary -->
<g id="edge3" class="edge">
<title>_18_Wordle&#45;&#45;_21_Dictionary</title>
<path fill="none" stroke="black" d="M324.4,-608.62C323.42,-548.62 322.16,-471.26 321.11,-406.35"/>
<polygon fill="black" stroke="black" points="320.94,-396.43 325.61,-406.35 321.01,-400.21 321.11,-406.43 321.11,-406.43 321.11,-406.43 321.01,-400.21 316.61,-406.5 320.94,-396.43"/>
<text text-anchor="start" x="251.17" y="-397.71" font-family="Arial" font-size="10.00">GameDictionary</text>
</g>
<!-- _21_About -->
<g id="node3" class="node">
<title>_21_About</title>
<g id="a_node3"><a xlink:href="WebWordle.dbquity#:~:text=class%20About" xlink:title="model.dbquity.com/examples:WebWordle\Wordle\About &#45;&gt; WebWordle.dbquity#:~:text=class%20About" target="_parent">
<path fill="none" stroke="black" d="M190.38,-763C190.38,-763 35.62,-763 35.62,-763 29.62,-763 23.62,-757 23.62,-751 23.62,-751 23.62,-665 23.62,-665 23.62,-659 29.62,-653 35.62,-653 35.62,-653 190.38,-653 190.38,-653 196.38,-653 202.38,-659 202.38,-665 202.38,-665 202.38,-751 202.38,-751 202.38,-757 196.38,-763 190.38,-763"/>
<polyline fill="none" stroke="black" points="31.62,-729 194.38,-729"/>
<text text-anchor="start" x="96.12" y="-746.5" font-family="Arial" font-size="10.00">«class»</text>
<text text-anchor="start" x="100.25" y="-734.5" font-family="Arial" font-size="10.00">About</text>
<polyline fill="none" stroke="black" points="194.38,-729 31.62,-729"/>
<text text-anchor="start" x="34.62" y="-716.5" font-family="Arial" font-size="10.00">title: &quot;Out of&quot;||Occurrences||&quot;word …</text>
<polyline fill="none" stroke="black" points="194.38,-711 31.62,-711"/>
<text text-anchor="start" x="34.62" y="-698.5" font-family="Arial" font-size="10.00">text WebPage</text>
<text text-anchor="start" x="34.62" y="-686.5" font-family="Arial" font-size="10.00">integer LetterCount</text>
<text text-anchor="start" x="34.62" y="-674.5" font-family="Arial" font-size="10.00">integer Occurrences</text>
<text text-anchor="start" x="34.62" y="-662.5" font-family="Arial" font-size="10.00">integer Distincts</text>
</a>
</g>
</g>
<!-- _21_Game -->
<g id="node4" class="node">
<title>_21_Game</title>
<g id="a_node4"><a xlink:href="WebWordle.dbquity#:~:text=entity%20Game" xlink:title="model.dbquity.com/examples:WebWordle\Wordle%3ame &#45;&gt; WebWordle.dbquity#:~:text=entity%20Game" target="_parent">
<polygon fill="none" stroke="black" points="654.5,-924 461.5,-924 461.5,-492 654.5,-492 654.5,-924"/>
<polyline fill="none" stroke="black" points="469.5,-890 646.5,-890"/>
<text text-anchor="start" x="540.75" y="-907.5" font-family="Arial" font-size="10.00">«entity»</text>
<text text-anchor="start" x="543.38" y="-895.5" font-family="Arial" font-size="10.00">/Game</text>
<polyline fill="none" stroke="black" points="646.5,-890 469.5,-890"/>
<text text-anchor="start" x="472.5" y="-878.5" font-family="Arial" font-style="italic" font-size="10.00">if Guessed then</text>
<text text-anchor="start" x="472.5" y="-868.5" font-family="Arial" font-style="italic" font-size="10.00"> &#160;&#160;&#160;&quot;Congratulations!&quot;||By||&quot;guessed…</text>
<text text-anchor="start" x="472.5" y="-858.5" font-family="Arial" font-style="italic" font-size="10.00"> &#160;&#160;&#160;&quot;in attempt number&quot;||(a:Attempts…</text>
<text text-anchor="start" x="472.5" y="-848.5" font-family="Arial" font-style="italic" font-size="10.00"> &#160;&#160;&#160;(if a &lt; 3 then &quot;!!&quot; else if a &lt; …</text>
<text text-anchor="start" x="472.5" y="-838.5" font-family="Arial" font-style="italic" font-size="10.00">else if Guessed = nil then</text>
<text text-anchor="start" x="472.5" y="-828.5" font-family="Arial" font-style="italic" font-size="10.00"> &#160;&#160;&#160;About//</text>
<text text-anchor="start" x="472.5" y="-818.5" font-family="Arial" font-style="italic" font-size="10.00"> &#160;&#160;&#160;&quot;You have&quot;||(if (a:(AttemptsAllo…</text>
<text text-anchor="start" x="472.5" y="-808.5" font-family="Arial" font-style="italic" font-size="10.00"> &#160;&#160;&#160;&quot;remaining attempt&quot;|(if a &lt;&gt; 1 t…</text>
<text text-anchor="start" x="472.5" y="-798.5" font-family="Arial" font-style="italic" font-size="10.00"> &#160;&#160;&#160;(if not GuessIsValid() then</text>
<text text-anchor="start" x="472.5" y="-788.5" font-family="Arial" font-style="italic" font-size="10.00"> &#160;&#160;&#160;&#160;&#160;&#160;&#160;&quot;Please enter&quot;||LetterCount|…</text>
<text text-anchor="start" x="625.5" y="-788.5" font-family="Arial" font-size="10.00"> </text>
<text text-anchor="start" x="628.5" y="-788.5" font-family="Arial" font-style="italic" font-size="10.00">~</text>
<polyline fill="none" stroke="black" points="646.5,-784 469.5,-784"/>
<text text-anchor="start" x="472.5" y="-771.5" font-family="Arial" font-size="10.00">collection: Games</text>
<text text-anchor="start" x="472.5" y="-759.5" font-family="Arial" font-size="10.00">{Guessed &lt;&gt; false}</text>
<text text-anchor="start" x="472.5" y="-747.5" font-family="Arial" font-size="10.00">title: identity</text>
<text text-anchor="start" x="472.5" y="-735.5" font-family="Arial" font-size="10.00">readonly: true</text>
<text text-anchor="start" x="472.5" y="-723.5" font-family="Arial" font-size="10.00">oncreate: add(KeyboardRow, a:&#39;Q&#39;, b:…</text>
<polyline fill="none" stroke="black" points="646.5,-718 469.5,-718"/>
<text text-anchor="start" x="472.5" y="-705.5" font-family="Arial" font-size="10.00" fill="lightgray">/integer AttemptsAllowed</text>
<text text-anchor="start" x="472.5" y="-693.5" font-family="Arial" font-size="10.00" fill="lightgray"> &#160;usercount * (LetterCount &#45; 1) + Lett…</text>
<text text-anchor="start" x="472.5" y="-681.5" font-family="Arial" font-size="10.00">/integer AttemptCount</text>
<text text-anchor="start" x="472.5" y="-669.5" font-family="Arial" font-size="10.00"> &#160;Attempts.count()</text>
<text text-anchor="start" x="472.5" y="-657.5" font-family="Arial" font-size="10.00">text TheWord</text>
<text text-anchor="start" x="472.5" y="-645.5" font-family="Arial" font-size="10.00" fill="lightgray">/integer LetterCount</text>
<text text-anchor="start" x="472.5" y="-633.5" font-family="Arial" font-size="10.00" fill="lightgray"> &#160;TheWord.length()</text>
<text text-anchor="start" x="472.5" y="-621.5" font-family="Arial" font-size="10.00">/text Played</text>
<text text-anchor="start" x="472.5" y="-609.5" font-family="Arial" font-size="10.00"> &#160;created|&quot;..&quot;//…</text>
<text text-anchor="start" x="472.5" y="-597.5" font-family="Arial" font-size="10.00" fill="lightgray">boolean Guessed</text>
<text text-anchor="start" x="472.5" y="-585.5" font-family="Arial" font-size="10.00">/text By</text>
<text text-anchor="start" x="472.5" y="-573.5" font-family="Arial" font-size="10.00"> &#160;if Guessed then Attempts.last().by</text>
<text text-anchor="start" x="472.5" y="-561.5" font-family="Arial" font-size="10.00" fill="lightgray">About About</text>
<polyline fill="none" stroke="black" points="646.5,-556 469.5,-556"/>
<text text-anchor="start" x="472.5" y="-543.5" font-family="Arial" font-size="10.00">GuessIsValid()</text>
<text text-anchor="start" x="472.5" y="-531.5" font-family="Arial" font-size="10.00"> &#160;if (g: Attempts.draft().title).lengt…</text>
<polyline fill="none" stroke="black" points="646.5,-526 469.5,-526"/>
<text text-anchor="start" x="472.5" y="-513.5" font-family="Arial" font-size="10.00">[Guessed = ni…]Submit()✓</text>
<text text-anchor="start" x="472.5" y="-501.5" font-family="Arial" font-size="10.00"> &#160;guess: Attempts.draft();…</text>
</a>
</g>
</g>
<!-- _21_Game&#45;&#45;_21_Dictionary -->
<g id="edge4" class="edge">
<title>_21_Game&#45;&#45;_21_Dictionary</title>
<path fill="none" stroke="black" d="M461.13,-497.71C460.09,-495.8 459.04,-493.89 458,-492 442.05,-463.12 423.67,-432.92 405.6,-404.59"/>
<polygon fill="black" stroke="black" points="400.41,-396.48 409.59,-402.47 402.45,-399.67 405.8,-404.9 405.8,-404.9 405.8,-404.9 402.45,-399.67 402.01,-407.33 400.41,-396.48"/>
</g>
<!-- _49_Attempt -->
<g id="node5" class="node">
<title>_49_Attempt</title>
<g id="a_node5"><a xlink:href="WebWordle.dbquity#:~:text=entity%20Attempt" xlink:title="model.dbquity.com/examples:WebWordle\Wordle%3ame\Attempt &#45;&gt; WebWordle.dbquity#:~:text=entity%20Attempt" target="_parent">
<polygon fill="none" stroke="black" points="660.12,-444 455.88,-444 455.88,-108 660.12,-108 660.12,-444"/>
<polyline fill="none" stroke="black" points="463.88,-410 652.12,-410"/>
<text text-anchor="start" x="540.75" y="-427.5" font-family="Arial" font-size="10.00">«entity»</text>
<text text-anchor="start" x="540.75" y="-415.5" font-family="Arial" font-size="10.00">Attempt</text>
<polyline fill="none" stroke="black" points="652.12,-410 463.88,-410"/>
<text text-anchor="start" x="466.88" y="-397.5" font-family="Arial" font-size="10.00">importance: promoted</text>
<text text-anchor="start" x="466.88" y="-385.5" font-family="Arial" font-size="10.00">collection: Attempts</text>
<text text-anchor="start" x="466.88" y="-373.5" font-family="Arial" font-size="10.00">title: A|B|C|D|E|F|G|H</text>
<text text-anchor="start" x="466.88" y="-361.5" font-family="Arial" font-size="10.00">readonly: issaved or Game.Guessed &lt;&gt;…</text>
<text text-anchor="start" x="466.88" y="-349.5" font-family="Arial" font-size="10.00">undeletable: true</text>
<text text-anchor="start" x="466.88" y="-337.5" font-family="Arial" font-size="10.00">styling: A: GetStyle(A, 1), B: GetSt…</text>
<polyline fill="none" stroke="black" points="652.12,-332 463.88,-332"/>
<text text-anchor="start" x="466.88" y="-320.5" font-family="Arial" font-size="10.00">character A</text>
<text text-anchor="start" x="466.88" y="-310.5" font-family="Arial" font-size="10.00">character B</text>
<text text-anchor="start" x="466.88" y="-300.5" font-family="Arial" font-size="10.00">character C</text>
<text text-anchor="start" x="466.88" y="-290.5" font-family="Arial" font-size="10.00">character D</text>
<text text-anchor="start" x="466.88" y="-280.5" font-family="Arial" font-size="10.00">character E</text>
<text text-anchor="start" x="466.88" y="-270.5" font-family="Arial" font-size="10.00">character F</text>
<text text-anchor="start" x="466.88" y="-260.5" font-family="Arial" font-size="10.00">character G</text>
<text text-anchor="start" x="466.88" y="-250.5" font-family="Arial" font-size="10.00">character H</text>
<text text-anchor="start" x="466.88" y="-240.5" font-family="Arial" font-size="10.00" fill="lightgray">»boolean IsAWord</text>
<text text-anchor="start" x="466.88" y="-230.5" font-family="Arial" font-size="10.00">/text by</text>
<text text-anchor="start" x="466.88" y="-220.5" font-family="Arial" font-size="10.00"> &#160;createdby</text>
<text text-anchor="start" x="466.88" y="-210.5" font-family="Arial" font-size="10.00" fill="lightgray">»|integer In</text>
<text text-anchor="start" x="466.88" y="-200.5" font-family="Arial" font-size="10.00" fill="lightgray"> &#160;</text>
<text text-anchor="start" x="472.88" y="-200.5" font-family="Arial" font-style="italic" font-size="10.00" fill="lightgray">1</text>
<polyline fill="none" stroke="black" points="652.12,-196 463.88,-196"/>
<text text-anchor="start" x="466.88" y="-183.5" font-family="Arial" font-size="10.00">GetStyle(Letter, Index)</text>
<text text-anchor="start" x="466.88" y="-171.5" font-family="Arial" font-size="10.00"> &#160;if Index &lt;= letters then (…</text>
<polyline fill="none" stroke="black" points="652.12,-166 463.88,-166"/>
<text text-anchor="start" x="466.88" y="-153.5" font-family="Arial" font-size="10.00">[isdraft and …]SetKey(key)</text>
<text text-anchor="start" x="466.88" y="-141.5" font-family="Arial" font-size="10.00"> &#160;if key = &#39;!&#39; then (…</text>
<text text-anchor="start" x="466.88" y="-129.5" font-family="Arial" font-size="10.00">SetLetter(key)</text>
<text text-anchor="start" x="466.88" y="-117.5" font-family="Arial" font-size="10.00"> &#160;if In=1 then set(A:key) else if In=2…</text>
</a>
</g>
</g>
<!-- _21_Game&#45;&#45;_49_Attempt -->
<g id="edge1" class="edge">
<title>_21_Game&#45;&#45;_49_Attempt</title>
<path fill="none" stroke="black" d="M558,-478.99C558,-467.3 558,-455.66 558,-444.22"/>
<polygon fill="black" stroke="black" points="558,-478.78 562,-484.78 558,-490.78 554,-484.78 558,-478.78"/>
<text text-anchor="start" x="558" y="-464.5" font-family="Arial" font-size="10.00">Attempts</text>
<text text-anchor="middle" x="556.12" y="-446.72" font-family="Arial" font-size="10.00">*</text>
</g>
<!-- _49_KeyboardRow -->
<g id="node6" class="node">
<title>_49_KeyboardRow</title>
<g id="a_node6"><a xlink:href="WebWordle.dbquity#:~:text=entity%20KeyboardRow" xlink:title="model.dbquity.com/examples:WebWordle\Wordle%3ame\KeyboardRow &#45;&gt; WebWordle.dbquity#:~:text=entity%20KeyboardRow" target="_parent">
<polygon fill="none" stroke="black" points="878.25,-427 683.75,-427 683.75,-125 878.25,-125 878.25,-427"/>
<polyline fill="none" stroke="black" points="691.75,-393 870.25,-393"/>
<text text-anchor="start" x="763.75" y="-410.5" font-family="Arial" font-size="10.00">«entity»</text>
<text text-anchor="start" x="749.5" y="-398.5" font-family="Arial" font-size="10.00">/KeyboardRow</text>
<polyline fill="none" stroke="black" points="870.25,-393 691.75,-393"/>
<text text-anchor="start" x="694.75" y="-380.5" font-family="Arial" font-size="10.00">importance: promoted</text>
<text text-anchor="start" x="694.75" y="-368.5" font-family="Arial" font-size="10.00">collection: Keyboard</text>
<text text-anchor="start" x="694.75" y="-356.5" font-family="Arial" font-size="10.00">readonly: true</text>
<text text-anchor="start" x="694.75" y="-344.5" font-family="Arial" font-size="10.00">styling: a: GetStyle(a), b: GetStyle…</text>
<polyline fill="none" stroke="black" points="870.25,-339 691.75,-339"/>
<text text-anchor="start" x="694.75" y="-326.5" font-family="Arial" font-size="10.00">character a</text>
<text text-anchor="start" x="694.75" y="-314.5" font-family="Arial" font-size="10.00">character b</text>
<text text-anchor="start" x="694.75" y="-302.5" font-family="Arial" font-size="10.00">character c</text>
<text text-anchor="start" x="694.75" y="-290.5" font-family="Arial" font-size="10.00">character d</text>
<text text-anchor="start" x="694.75" y="-278.5" font-family="Arial" font-size="10.00">character e</text>
<text text-anchor="start" x="694.75" y="-266.5" font-family="Arial" font-size="10.00">character f</text>
<text text-anchor="start" x="694.75" y="-254.5" font-family="Arial" font-size="10.00">character g</text>
<text text-anchor="start" x="694.75" y="-242.5" font-family="Arial" font-size="10.00">character h</text>
<text text-anchor="start" x="694.75" y="-230.5" font-family="Arial" font-size="10.00">character i</text>
<text text-anchor="start" x="694.75" y="-218.5" font-family="Arial" font-size="10.00">character j</text>
<polyline fill="none" stroke="black" points="870.25,-213 691.75,-213"/>
<text text-anchor="start" x="694.75" y="-200.5" font-family="Arial" font-size="10.00">GetStyle(key)</text>
<text text-anchor="start" x="694.75" y="-188.5" font-family="Arial" font-size="10.00"> &#160;case(key,…</text>
<text text-anchor="start" x="694.75" y="-176.5" font-family="Arial" font-size="10.00">GoodOrBad(key)</text>
<text text-anchor="start" x="694.75" y="-164.5" font-family="Arial" font-size="10.00"> &#160;if Game.Attempts.any(title.contains(…</text>
<polyline fill="none" stroke="black" points="870.25,-159 691.75,-159"/>
<text text-anchor="start" x="694.75" y="-146.5" font-family="Arial" font-size="10.00">SetKey(key)</text>
<text text-anchor="start" x="694.75" y="-134.5" font-family="Arial" font-size="10.00"> &#160;if (draft: Game.Attempts.draft()) th…</text>
</a>
</g>
</g>
<!-- _21_Game&#45;&#45;_49_KeyboardRow -->
<g id="edge2" class="edge">
<title>_21_Game&#45;&#45;_49_KeyboardRow</title>
<path fill="none" stroke="black" d="M660.7,-508.96C674.93,-481.53 689.34,-453.74 703.02,-427.37"/>
<polygon fill="black" stroke="black" points="660.78,-508.82 661.57,-515.99 655.25,-519.47 654.46,-512.3 660.78,-508.82"/>
<text text-anchor="start" x="682" y="-464.5" font-family="Arial" font-size="10.00">Keyboard</text>
<text text-anchor="middle" x="701.14" y="-429.87" font-family="Arial" font-size="10.00">*</text>
</g>
</g>
</svg>
