<?xml version="1.0" encoding="UTF-8" standalone="no"?>
<!DOCTYPE svg PUBLIC "-//W3C//DTD SVG 1.1//EN"
 "http://www.w3.org/Graphics/SVG/1.1/DTD/svg11.dtd">
<!-- Generated by graphviz version 9.0.0 (20230911.1827)
 -->
<!-- Pages: 1 -->
<svg width="1107pt" height="887pt"
 viewBox="0.00 0.00 1107.00 887.00" xmlns="http://www.w3.org/2000/svg" xmlns:xlink="http://www.w3.org/1999/xlink">
<g id="graph0" class="graph" transform="scale(1 1) rotate(0) translate(4 883)">
<polygon fill="white" stroke="none" points="-4,4 -4,-883 1103,-883 1103,4 -4,4"/>
<text text-anchor="start" x="323" y="-10.5" font-family="Arial" font-size="10.00">Dbquity CLI v0.10.8820</text>
<text text-anchor="start" x="428.75" y="-10.5" font-family="Arial" font-size="10.00"> &#160;&#160;&#160;dot WebWordle * &#45;filter::WebWordle\ +m &#45;r &#45;d &#160;&#160;&#160;</text>
<text text-anchor="start" x="654.5" y="-10.5" font-family="Arial" font-size="10.00">2024&#45;11&#45;25 22:24:39 +01:00</text>
<g id="clust1" class="cluster">
<title>cluster_20_WebWordle</title>
<g id="a_clust1"><a xlink:href="WebWordle.dbquity" xlink:title="model.dbquity.com/examples:WebWordle&#10; &#45;&gt; WebWordle.dbquity" target="_parent">
<polygon fill="none" stroke="black" points="8,-36 8,-871 1091,-871 1091,-36 8,-36"/>
<text text-anchor="middle" x="549.5" y="-857.5" font-family="Arial" font-size="10.00">site model.dbquity.com/examples:WebWordle v0.1.0</text>
</a>
</g>
</g>
<g id="clust2" class="cluster">
<title>cluster_23_Wordle</title>
<g id="a_clust2"><a xlink:href="WebWordle.dbquity#:~:text=area%20Wordle" xlink:title="model.dbquity.com/examples:WebWordle\Wordle&#10; &#45;&gt; WebWordle.dbquity#:~:text=area%20Wordle" target="_parent">
<polygon fill="none" stroke="black" points="16,-44 16,-843 1083,-843 1083,-44 16,-44"/>
<text text-anchor="start" x="521.38" y="-830.5" font-family="Arial" font-size="10.00">area </text>
<text text-anchor="start" x="543.12" y="-830.5" font-family="Arial" font-weight="bold" font-size="10.00">Wordle</text>
</a>
</g>
</g>
<g id="clust3" class="cluster">
<title>cluster_41_Game</title>
<g id="a_clust3"><a xlink:href="WebWordle.dbquity#:~:text=entity%20Game" xlink:title="model.dbquity.com/examples:WebWordle\Wordlecluster_41_Gameame&#10; &#45;&gt; WebWordle.dbquity#:~:text=entity%20Game" target="_parent">
<polygon fill="none" stroke="black" stroke-dasharray="1,5" points="632,-52 632,-815 1075,-815 1075,-52 632,-52"/>
</a>
</g>
</g>
<g id="clust4" class="cluster">
<title>cluster_54_Attempt</title>
<g id="a_clust4"><a xlink:href="WebWordle.dbquity#:~:text=entity%20Attempt" xlink:title="model.dbquity.com/examples:WebWordle\Wordlecluster_54_Attemptame\Attempt&#10; &#45;&gt; WebWordle.dbquity#:~:text=entity%20Attempt" target="_parent">
<polygon fill="none" stroke="black" stroke-dasharray="1,5" points="640,-60 640,-453 1067,-453 1067,-60 640,-60"/>
</a>
</g>
</g>
<!-- _20_Wordle -->
<g id="node1" class="node">
<title>_20_Wordle</title>
<g id="a_node1"><a xlink:href="WebWordle.dbquity#:~:text=area%20Wordle" xlink:title="model.dbquity.com/examples:WebWordle\Wordle&#10; &#45;&gt; WebWordle.dbquity#:~:text=area%20Wordle" target="_parent">
<polygon fill="none" stroke="black" points="623.88,-737 304.12,-737 304.12,-563 623.88,-563 623.88,-737"/>
<polyline fill="none" stroke="black" points="312.12,-707 615.88,-707"/>
<text text-anchor="start" x="449.38" y="-721.5" font-family="Arial" font-size="10.00">«area»</text>
<text text-anchor="start" x="446.75" y="-711.5" font-family="Arial" font-weight="bold" font-size="10.00">Wordle</text>
<polyline fill="none" stroke="black" points="615.88,-707 312.12,-707"/>
<text text-anchor="start" x="315.12" y="-695.5" font-family="Arial" font-size="10.00">»|text WebPage</text>
<text text-anchor="start" x="315.12" y="-685.5" font-family="Arial" font-size="10.00"> &#160;</text>
<text text-anchor="start" x="321.12" y="-685.5" font-family="Arial" font-style="italic" font-size="10.00">&quot;https://dbquity.com&quot;</text>
<text text-anchor="start" x="315.12" y="-675.5" font-family="Arial" font-size="10.00">»|integer LetterCount &#160;&#160;&#160;&#160;&#160;&#160;&#160;&#160;&#160;&#160;&#160;</text>
<text text-anchor="start" x="315.12" y="-665.5" font-family="Arial" font-size="10.00"> &#160;&#160;{. in 4..8}</text>
<text text-anchor="start" x="315.12" y="-655.5" font-family="Arial" font-size="10.00"> &#160;</text>
<text text-anchor="start" x="321.12" y="-655.5" font-family="Arial" font-style="italic" font-size="10.00">4</text>
<polyline fill="none" stroke="black" points="615.88,-651 312.12,-651"/>
<text text-anchor="start" x="315.12" y="-638.5" font-family="Arial" font-size="10.00">IsQualified(word)</text>
<text text-anchor="start" x="315.12" y="-626.5" font-family="Arial" font-size="10.00"> &#160;if word.length() &gt; 3 then word.all(. in (atoz? &#39;a&#39;..&#39;z&#39;))</text>
<polyline fill="none" stroke="black" points="615.88,-621 312.12,-621"/>
<text text-anchor="start" x="315.12" y="-608.5" font-family="Arial" font-size="10.00">[(game: Games.last(Guessed = nil))]OpenRecentGame()</text>
<text text-anchor="start" x="315.12" y="-596.5" font-family="Arial" font-size="10.00"> &#160;game.open()</text>
<text text-anchor="start" x="315.12" y="-584.5" font-family="Arial" font-size="10.00">[WebPage.isurl() and isvalid(LetterCount)]Start()✓</text>
<text text-anchor="start" x="315.12" y="-572.5" font-family="Arial" font-size="10.00"> &#160;candidates: WebPage.download().aswords().where(IsQualified(.));…</text>
</a>
</g>
</g>
<!-- _23_About -->
<g id="node2" class="node">
<title>_23_About</title>
<g id="a_node2"><a xlink:href="WebWordle.dbquity#:~:text=class%20About" xlink:title="model.dbquity.com/examples:WebWordle\Wordle\About&#10; &#45;&gt; WebWordle.dbquity#:~:text=class%20About" target="_parent">
<path fill="none" stroke="black" d="M274.38,-699C274.38,-699 35.62,-699 35.62,-699 29.62,-699 23.62,-693 23.62,-687 23.62,-687 23.62,-613 23.62,-613 23.62,-607 29.62,-601 35.62,-601 35.62,-601 274.38,-601 274.38,-601 280.38,-601 286.38,-607 286.38,-613 286.38,-613 286.38,-687 286.38,-687 286.38,-693 280.38,-699 274.38,-699"/>
<polyline fill="none" stroke="black" points="31.62,-665 278.38,-665"/>
<text text-anchor="start" x="138.12" y="-682.5" font-family="Arial" font-size="10.00">«class»</text>
<text text-anchor="start" x="142.25" y="-670.5" font-family="Arial" font-size="10.00">About</text>
<polyline fill="none" stroke="black" points="278.38,-665 31.62,-665"/>
<text text-anchor="start" x="34.62" y="-652.5" font-family="Arial" font-size="10.00">title: &quot;Out of&quot;||Occurrences||&quot;word occurrences we fou…</text>
<polyline fill="none" stroke="black" points="278.38,-647 31.62,-647"/>
<text text-anchor="start" x="34.62" y="-634.5" font-family="Arial" font-size="10.00">text WebPage</text>
<text text-anchor="start" x="34.62" y="-622.5" font-family="Arial" font-size="10.00">integer Occurrences</text>
<text text-anchor="start" x="34.62" y="-610.5" font-family="Arial" font-size="10.00">integer Distincts</text>
</a>
</g>
</g>
<!-- _23_Game -->
<g id="node3" class="node">
<title>_23_Game</title>
<g id="a_node3"><a xlink:href="WebWordle.dbquity#:~:text=entity%20Game" xlink:title="model.dbquity.com/examples:WebWordle\Wordle%3ame&#10; &#45;&gt; WebWordle.dbquity#:~:text=entity%20Game" target="_parent">
<polygon fill="none" stroke="black" points="1014,-807 698,-807 698,-493 1014,-493 1014,-807"/>
<polyline fill="none" stroke="black" points="706,-773 1006,-773"/>
<text text-anchor="start" x="838.75" y="-790.5" font-family="Arial" font-size="10.00">«entity»</text>
<text text-anchor="start" x="841.38" y="-778.5" font-family="Arial" font-size="10.00">/Game</text>
<polyline fill="none" stroke="black" points="1006,-773 706,-773"/>
<text text-anchor="start" x="709" y="-760.5" font-family="Arial" font-size="10.00">collection: Games</text>
<text text-anchor="start" x="709" y="-748.5" font-family="Arial" font-size="10.00">[Wordle.IsQualified(TheWord) and AttemptsAllowed…]</text>
<text text-anchor="start" x="709" y="-736.5" font-family="Arial" font-size="10.00">{Guessed &lt;&gt; false}</text>
<text text-anchor="start" x="709" y="-724.5" font-family="Arial" font-size="10.00">title: identity</text>
<text text-anchor="start" x="709" y="-712.5" font-family="Arial" font-size="10.00">readonly: true</text>
<polyline fill="none" stroke="black" points="1006,-707 706,-707"/>
<text text-anchor="start" x="709" y="-694.5" font-family="Arial" font-size="10.00" fill="lightgray">/integer AttemptsAllowed</text>
<text text-anchor="start" x="709" y="-682.5" font-family="Arial" font-size="10.00" fill="lightgray"> &#160;usercount * (LetterCount &#45; 1) + LetterCount…</text>
<text text-anchor="start" x="709" y="-670.5" font-family="Arial" font-size="10.00">/integer AttemptCount</text>
<text text-anchor="start" x="709" y="-658.5" font-family="Arial" font-size="10.00"> &#160;Attempts.count()</text>
<text text-anchor="start" x="709" y="-646.5" font-family="Arial" font-size="10.00">text TheWord</text>
<text text-anchor="start" x="709" y="-634.5" font-family="Arial" font-size="10.00" fill="lightgray">/integer LetterCount</text>
<text text-anchor="start" x="709" y="-622.5" font-family="Arial" font-size="10.00" fill="lightgray"> &#160;TheWord.length()</text>
<text text-anchor="start" x="709" y="-610.5" font-family="Arial" font-size="10.00">»text Guess</text>
<text text-anchor="start" x="709" y="-598.5" font-family="Arial" font-size="10.00" fill="lightgray">boolean Guessed</text>
<text text-anchor="start" x="709" y="-586.5" font-family="Arial" font-size="10.00">/text By</text>
<text text-anchor="start" x="709" y="-574.5" font-family="Arial" font-size="10.00"> &#160;if Guessed then Attempts.last().by</text>
<text text-anchor="start" x="709" y="-562.5" font-family="Arial" font-size="10.00" fill="lightgray">About About</text>
<polyline fill="none" stroke="black" points="1006,-557 706,-557"/>
<text text-anchor="start" x="709" y="-544.5" font-family="Arial" font-size="10.00">GuessIsValid()</text>
<text text-anchor="start" x="709" y="-532.5" font-family="Arial" font-size="10.00"> &#160;if Guess.length() = LetterCount then Wordle.IsQualified(Guess)</text>
<polyline fill="none" stroke="black" points="1006,-527 706,-527"/>
<text text-anchor="start" x="709" y="-514.5" font-family="Arial" font-size="10.00">[Guessed = nil and GuessIsValid()]Submit()✓</text>
<text text-anchor="start" x="709" y="-502.5" font-family="Arial" font-size="10.00"> &#160;add(Attempt, A:Guess[1], B:Guess[2], C:Guess[3], D:Guess[4],…</text>
</a>
</g>
</g>
<!-- _41_Attempt -->
<g id="node4" class="node">
<title>_41_Attempt</title>
<g id="a_node4"><a xlink:href="WebWordle.dbquity#:~:text=entity%20Attempt" xlink:title="model.dbquity.com/examples:WebWordle\Wordle%3ame\Attempt&#10; &#45;&gt; WebWordle.dbquity#:~:text=entity%20Attempt" target="_parent">
<polygon fill="none" stroke="black" points="991.88,-445 720.12,-445 720.12,-185 991.88,-185 991.88,-445"/>
<polyline fill="none" stroke="black" points="728.12,-411 983.88,-411"/>
<text text-anchor="start" x="838.75" y="-428.5" font-family="Arial" font-size="10.00">«entity»</text>
<text text-anchor="start" x="837.25" y="-416.5" font-family="Arial" font-size="10.00">/Attempt</text>
<polyline fill="none" stroke="black" points="983.88,-411 728.12,-411"/>
<text text-anchor="start" x="731.12" y="-398.5" font-family="Arial" font-size="10.00">importance: promoted</text>
<text text-anchor="start" x="731.12" y="-386.5" font-family="Arial" font-size="10.00">collection: Attempts</text>
<text text-anchor="start" x="731.12" y="-374.5" font-family="Arial" font-size="10.00">title: A|B|C|D|E|F|G|H</text>
<text text-anchor="start" x="731.12" y="-362.5" font-family="Arial" font-size="10.00">readonly: true</text>
<text text-anchor="start" x="731.12" y="-350.5" font-family="Arial" font-size="10.00">styling: A: GetStyle(A, 1), B: GetStyle(B, 2), C: GetSty…</text>
<polyline fill="none" stroke="black" points="983.88,-345 728.12,-345"/>
<text text-anchor="start" x="731.12" y="-332.5" font-family="Arial" font-size="10.00">character A</text>
<text text-anchor="start" x="731.12" y="-320.5" font-family="Arial" font-size="10.00">character B</text>
<text text-anchor="start" x="731.12" y="-308.5" font-family="Arial" font-size="10.00">character C</text>
<text text-anchor="start" x="731.12" y="-296.5" font-family="Arial" font-size="10.00">character D</text>
<text text-anchor="start" x="731.12" y="-284.5" font-family="Arial" font-size="10.00">character E</text>
<text text-anchor="start" x="731.12" y="-272.5" font-family="Arial" font-size="10.00">character F</text>
<text text-anchor="start" x="731.12" y="-260.5" font-family="Arial" font-size="10.00">character G</text>
<text text-anchor="start" x="731.12" y="-248.5" font-family="Arial" font-size="10.00">character H</text>
<text text-anchor="start" x="731.12" y="-236.5" font-family="Arial" font-size="10.00">/text by</text>
<text text-anchor="start" x="731.12" y="-224.5" font-family="Arial" font-size="10.00"> &#160;createdby</text>
<polyline fill="none" stroke="black" points="983.88,-219 728.12,-219"/>
<text text-anchor="start" x="731.12" y="-206.5" font-family="Arial" font-size="10.00">GetStyle(Letter, Index)</text>
<text text-anchor="start" x="731.12" y="-194.5" font-family="Arial" font-size="10.00"> &#160;if Index &gt; Game.LetterCount then nil…</text>
</a>
</g>
</g>
<!-- _23_Game&#45;&#45;_41_Attempt -->
<g id="edge4" class="edge">
<title>_23_Game&#45;&#45;_41_Attempt</title>
<path fill="none" stroke="black" d="M856,-479.69C856,-468.13 856,-456.59 856,-445.29"/>
<polygon fill="black" stroke="black" points="856,-479.84 860,-485.84 856,-491.84 852,-485.84 856,-479.84"/>
<text text-anchor="start" x="856" y="-465.5" font-family="Arial" font-size="10.00">Attempts</text>
<text text-anchor="middle" x="854.12" y="-447.79" font-family="Arial" font-size="10.00">*</text>
</g>
<!-- _54_Good -->
<g id="node5" class="node">
<title>_54_Good</title>
<g id="a_node5"><a xlink:href="WebWordle.dbquity#:~:text=style%20Good" xlink:title="model.dbquity.com/examples:WebWordle\Wordle%3ame\Attempt%3ood&#10; &#45;&gt; WebWordle.dbquity#:~:text=style%20Good&#10;&#45; &#45; &#45; &#45; &#45; &#45; &#45; &#45; &#45; &#45; &#45; &#45; &#45; &#45; &#45; &#45; &#45; &#45; &#45; &#45; &#45; &#45; &#45; &#45; &#45; &#45; &#45; &#45; &#45; &#45; &#45; &#45; &#10;A letter that is from the word,&#10;but is not in the right place" target="_parent">
<path fill="none" stroke="black" d="M764.25,-142C764.25,-142 659.75,-142 659.75,-142 653.75,-142 647.75,-136 647.75,-130 647.75,-130 647.75,-86 647.75,-86 647.75,-80 653.75,-74 659.75,-74 659.75,-74 764.25,-74 764.25,-74 770.25,-74 776.25,-80 776.25,-86 776.25,-86 776.25,-130 776.25,-130 776.25,-136 770.25,-142 764.25,-142"/>
<polyline fill="none" stroke="black" points="655.75,-108 768.25,-108"/>
<text text-anchor="start" x="696.25" y="-125.5" font-family="Arial" font-size="10.00">«style»</text>
<text text-anchor="start" x="700.38" y="-113.5" font-family="Arial" font-size="10.00">Good</text>
<polyline fill="none" stroke="black" points="768.25,-108 655.75,-108"/>
<text text-anchor="start" x="679" y="-95.5" font-family="Arial" font-size="10.00">textcolor: white</text>
<text text-anchor="start" x="658.75" y="-83.5" font-family="Arial" font-size="10.00">backgroundcolor: orange</text>
</a>
</g>
</g>
<!-- _41_Attempt&#45;&#45;_54_Good -->
<g id="edge1" class="edge">
<title>_41_Attempt&#45;&#45;_54_Good</title>
</g>
<!-- _54_Right -->
<g id="node6" class="node">
<title>_54_Right</title>
<g id="a_node6"><a xlink:href="WebWordle.dbquity#:~:text=style%20Right" xlink:title="model.dbquity.com/examples:WebWordle\Wordle%3ame\Attempt\Right&#10; &#45;&gt; WebWordle.dbquity#:~:text=style%20Right&#10;&#45; &#45; &#45; &#45; &#45; &#45; &#45; &#45; &#45; &#45; &#45; &#45; &#45; &#45; &#45; &#45; &#45; &#45; &#45; &#45; &#45; &#45; &#45; &#45; &#45; &#45; &#45; &#45; &#45; &#45; &#45; &#45; &#45; &#10;A correct letter&#10;in the right place" target="_parent">
<path fill="none" stroke="black" d="M905.62,-142C905.62,-142 806.38,-142 806.38,-142 800.38,-142 794.38,-136 794.38,-130 794.38,-130 794.38,-86 794.38,-86 794.38,-80 800.38,-74 806.38,-74 806.38,-74 905.62,-74 905.62,-74 911.62,-74 917.62,-80 917.62,-86 917.62,-86 917.62,-130 917.62,-130 917.62,-136 911.62,-142 905.62,-142"/>
<polyline fill="none" stroke="black" points="802.38,-108 909.62,-108"/>
<text text-anchor="start" x="840.25" y="-125.5" font-family="Arial" font-size="10.00">«style»</text>
<text text-anchor="start" x="844.75" y="-113.5" font-family="Arial" font-size="10.00">Right</text>
<polyline fill="none" stroke="black" points="909.62,-108 802.38,-108"/>
<text text-anchor="start" x="823" y="-95.5" font-family="Arial" font-size="10.00">textcolor: white</text>
<text text-anchor="start" x="805.38" y="-83.5" font-family="Arial" font-size="10.00">backgroundcolor: green</text>
</a>
</g>
</g>
<!-- _41_Attempt&#45;&#45;_54_Right -->
<g id="edge2" class="edge">
<title>_41_Attempt&#45;&#45;_54_Right</title>
</g>
<!-- _54_Guessed -->
<g id="node7" class="node">
<title>_54_Guessed</title>
<g id="a_node7"><a xlink:href="WebWordle.dbquity#:~:text=style%20Guessed" xlink:title="model.dbquity.com/examples:WebWordle\Wordle%3ame\Attempt%3uessed&#10; &#45;&gt; WebWordle.dbquity#:~:text=style%20Guessed&#10;&#45; &#45; &#45; &#45; &#45; &#45; &#45; &#45; &#45; &#45; &#45; &#45; &#45; &#45; &#45; &#45; &#45; &#45; &#45; &#45; &#45; &#45; &#45; &#45; &#45; &#45; &#45; &#45; &#45; &#45; &#45; &#45; &#45; &#45; &#10;All letters are right :&#45;)" target="_parent">
<path fill="none" stroke="black" d="M1046.62,-148C1046.62,-148 947.38,-148 947.38,-148 941.38,-148 935.38,-142 935.38,-136 935.38,-136 935.38,-80 935.38,-80 935.38,-74 941.38,-68 947.38,-68 947.38,-68 1046.62,-68 1046.62,-68 1052.62,-68 1058.62,-74 1058.62,-80 1058.62,-80 1058.62,-136 1058.62,-136 1058.62,-142 1052.62,-148 1046.62,-148"/>
<polyline fill="none" stroke="black" points="943.38,-114 1050.62,-114"/>
<text text-anchor="start" x="981.25" y="-131.5" font-family="Arial" font-size="10.00">«style»</text>
<text text-anchor="start" x="977.5" y="-119.5" font-family="Arial" font-size="10.00">Guessed</text>
<polyline fill="none" stroke="black" points="1050.62,-114 943.38,-114"/>
<text text-anchor="start" x="964" y="-101.5" font-family="Arial" font-size="10.00">textcolor: white</text>
<text text-anchor="start" x="946.38" y="-89.5" font-family="Arial" font-size="10.00">backgroundcolor: green</text>
<text text-anchor="start" x="975.62" y="-77.5" font-family="Arial" font-size="10.00">scale: 1.3</text>
</a>
</g>
</g>
<!-- _41_Attempt&#45;&#45;_54_Guessed -->
<g id="edge3" class="edge">
<title>_41_Attempt&#45;&#45;_54_Guessed</title>
</g>
</g>
</svg>
