<?xml version="1.0" encoding="UTF-8" standalone="no"?>
<!DOCTYPE svg PUBLIC "-//W3C//DTD SVG 1.1//EN"
 "http://www.w3.org/Graphics/SVG/1.1/DTD/svg11.dtd">
<!-- Generated by graphviz version 9.0.0 (20230911.1827)
 -->
<!-- Pages: 1 -->
<svg width="1056pt" height="984pt"
 viewBox="0.00 0.00 1056.00 984.00" xmlns="http://www.w3.org/2000/svg" xmlns:xlink="http://www.w3.org/1999/xlink">
<g id="graph0" class="graph" transform="scale(1 1) rotate(0) translate(4 980)">
<polygon fill="white" stroke="none" points="-4,4 -4,-980 1052,-980 1052,4 -4,4"/>
<text text-anchor="start" x="325.62" y="-10.5" font-family="Arial" font-size="10.00">Dbquity CLI v0.90.1</text>
<text text-anchor="start" x="415.62" y="-10.5" font-family="Arial" font-size="10.00"> &#160;&#160;&#160;dot WebWordleDictionary * +m &#45;z &#45;r &#160;&#160;&#160;</text>
<text text-anchor="start" x="600.88" y="-10.5" font-family="Arial" font-size="10.00">2026&#45;02&#45;26 11:51:40 +01:00</text>
<g id="clust1" class="cluster">
<title>cluster_18_WebWordle</title>
<g id="a_clust1"><a xlink:href="WebWordle.dbquity" xlink:title="model.dbquity.com/examples:WebWordle &#45;&gt; WebWordle.dbquity" target="_parent">
<polygon fill="none" stroke="black" points="8,-36 8,-968 1040,-968 1040,-36 8,-36"/>
<text text-anchor="middle" x="524" y="-954.5" font-family="Arial" font-size="10.00">site model.dbquity.com/examples:WebWordle v2.0.1</text>
</a>
</g>
</g>
<g id="clust2" class="cluster">
<title>cluster_21_Wordle</title>
<g id="a_clust2"><a xlink:href="WebWordle.dbquity#:~:text=area%20Wordle" xlink:title="model.dbquity.com/examples:WebWordle\Wordle &#45;&gt; WebWordle.dbquity#:~:text=area%20Wordle" target="_parent">
<polygon fill="none" stroke="black" points="16,-44 16,-940 1032,-940 1032,-44 16,-44"/>
</a>
</g>
</g>
<g id="clust3" class="cluster">
<title>cluster_49_Game</title>
<g id="a_clust3"><a xlink:href="WebWordle.dbquity#:~:text=entity%20Game" xlink:title="model.dbquity.com/examples:WebWordle\Wordlecluster_49_Gameame &#45;&gt; WebWordle.dbquity#:~:text=entity%20Game" target="_parent">
<polygon fill="none" stroke="black" stroke-dasharray="1,5" points="570,-52 570,-932 1024,-932 1024,-52 570,-52"/>
<text text-anchor="start" x="989.75" y="-58.5" font-family="Arial" font-size="10.00">Game</text>
</a>
</g>
</g>
<g id="clust4" class="cluster">
<title>cluster_64_Attempt</title>
<g id="a_clust4"><a xlink:href="WebWordle.dbquity#:~:text=entity%20Attempt" xlink:title="model.dbquity.com/examples:WebWordle\Wordlecluster_64_Attemptame\Attempt &#45;&gt; WebWordle.dbquity#:~:text=entity%20Attempt" target="_parent">
<polygon fill="none" stroke="black" stroke-dasharray="1,5" points="578,-80 578,-440 798,-440 798,-80 578,-80"/>
<text text-anchor="start" x="755.5" y="-86.5" font-family="Arial" font-size="10.00">Attempt</text>
</a>
</g>
</g>
<g id="clust5" class="cluster">
<title>cluster_92_KeyboardRow</title>
<g id="a_clust5"><a xlink:href="WebWordle.dbquity#:~:text=entity%20KeyboardRow" xlink:title="model.dbquity.com/examples:WebWordle\Wordlecluster_92_KeyboardRowame\KeyboardRow &#45;&gt; WebWordle.dbquity#:~:text=entity%20KeyboardRow" target="_parent">
<polygon fill="none" stroke="black" stroke-dasharray="1,5" points="806,-97 806,-423 1016,-423 1016,-97 806,-97"/>
<text text-anchor="start" x="948" y="-103.5" font-family="Arial" font-size="10.00">KeyboardRow</text>
</a>
</g>
</g>
<!-- _18_Wordle -->
<g id="node1" class="node">
<title>_18_Wordle</title>
<g id="a_node1"><a xlink:href="WebWordle.dbquity#:~:text=area%20Wordle" xlink:title="model.dbquity.com/examples:WebWordle\Wordle &#45;&gt; WebWordle.dbquity#:~:text=area%20Wordle" target="_parent">
<polygon fill="none" stroke="black" stroke-width="2" points="562.09,-754.94 391,-873.31 219.91,-754.94 220.07,-563.41 561.93,-563.41 562.09,-754.94"/>
<polyline fill="none" stroke="black" points="293.12,-782 488.88,-782"/>
<text text-anchor="start" x="364.75" y="-787.5" font-family="Arial" font-size="10.00">area Wordle</text>
<polyline fill="none" stroke="black" points="488.88,-782 293.12,-782"/>
<text text-anchor="start" x="296.12" y="-769.5" font-family="Arial" font-size="10.00">glyph: 🔠🤔</text>
<polyline fill="none" stroke="black" points="488.88,-764 293.12,-764"/>
<text text-anchor="start" x="296.12" y="-752.5" font-family="Arial" font-size="10.00">»|text WebPage</text>
<text text-anchor="start" x="296.12" y="-742.5" font-family="Arial" font-size="10.00"> &#160;</text>
<text text-anchor="start" x="302.12" y="-742.5" font-family="Arial" font-style="italic" font-size="10.00">&quot;https://dbquity.com&quot;</text>
<text text-anchor="start" x="296.12" y="-732.5" font-family="Arial" font-size="10.00">»|integer LetterCount &#160;&#160;&#160;&#160;&#160;&#160;&#160;&#160;&#160;&#160;&#160;</text>
<text text-anchor="start" x="296.12" y="-722.5" font-family="Arial" font-size="10.00"> &#160;&#160;{. in 4..8}</text>
<text text-anchor="start" x="296.12" y="-712.5" font-family="Arial" font-size="10.00"> &#160;</text>
<text text-anchor="start" x="302.12" y="-712.5" font-family="Arial" font-style="italic" font-size="10.00">5</text>
<text text-anchor="start" x="296.12" y="-702.5" font-family="Arial" font-size="10.00">»|link GameDictionary : Dictionary</text>
<text text-anchor="start" x="296.12" y="-692.5" font-family="Arial" font-size="10.00"> &#160;</text>
<text text-anchor="start" x="302.12" y="-692.5" font-family="Arial" font-style="italic" font-size="10.00">Wordle.get(Dictionary: &quot;Merriam&#45;Webs…</text>
<polyline fill="none" stroke="black" points="488.88,-688 293.12,-688"/>
<text text-anchor="start" x="296.12" y="-675.5" font-family="Arial" font-size="10.00">IsQualified(word)</text>
<text text-anchor="start" x="296.12" y="-663.5" font-family="Arial" font-size="10.00"> &#160;if word.length() &gt; 3 then word.all(.…</text>
<polyline fill="none" stroke="black" points="488.88,-658 293.12,-658"/>
<text text-anchor="start" x="296.12" y="-645.5" font-family="Arial" font-size="10.00">[Games.last(G…]OpenRecentGame()</text>
<text text-anchor="start" x="296.12" y="-633.5" font-family="Arial" font-size="10.00"> &#160;Games.last(Guessed = nil).open()</text>
<text text-anchor="start" x="296.12" y="-621.5" font-family="Arial" font-size="10.00">[WebPage.isur…]Start()✓</text>
<text text-anchor="start" x="296.12" y="-609.5" font-family="Arial" font-size="10.00"> &#160;candidates: WebPage.download().aswor…</text>
</a>
</g>
</g>
<!-- _21_Dictionary -->
<g id="node2" class="node">
<title>_21_Dictionary</title>
<g id="a_node2"><a xlink:href="WebWordle.dbquity#:~:text=entity%20Dictionary" xlink:title="model.dbquity.com/examples:WebWordle\Wordle\Dictionary &#45;&gt; WebWordle.dbquity#:~:text=entity%20Dictionary" target="_parent">
<polygon fill="none" stroke="black" points="540.62,-395 315.38,-395 315.38,-145 540.62,-145 540.62,-395"/>
<polyline fill="none" stroke="black" points="323.38,-361 532.62,-361"/>
<text text-anchor="start" x="410.75" y="-378.5" font-family="Arial" font-size="10.00">«entity»</text>
<text text-anchor="start" x="405.12" y="-366.5" font-family="Arial" font-size="10.00">|Dictionary</text>
<polyline fill="none" stroke="black" points="532.62,-361 323.38,-361"/>
<text text-anchor="start" x="326.38" y="-348.5" font-family="Arial" font-size="10.00" fill="gray">Den Danske Ordbog;dansk;https://ordn…</text>
<text text-anchor="start" x="326.38" y="-336.5" font-family="Arial" font-size="10.00" fill="gray">Merriam&#45;Webster;American English;htt…</text>
<polyline fill="none" stroke="black" points="532.62,-331 323.38,-331"/>
<text text-anchor="start" x="326.38" y="-318.5" font-family="Arial" font-size="10.00">derived</text>
<text text-anchor="start" x="326.38" y="-306.5" font-family="Arial" font-size="10.00">importance: additional</text>
<text text-anchor="start" x="326.38" y="-294.5" font-family="Arial" font-size="10.00">identity: Name</text>
<text text-anchor="start" x="326.38" y="-282.5" font-family="Arial" font-size="10.00">title: Name|&quot;|&quot;|Language</text>
<text text-anchor="start" x="326.38" y="-270.5" font-family="Arial" font-size="10.00">subtitle: LookupUrl</text>
<polyline fill="none" stroke="black" points="532.62,-265 323.38,-265"/>
<text text-anchor="start" x="326.38" y="-253.5" font-family="Arial" font-size="10.00">=text Name &#160;&#160;&#160;&#160;&#160;&#160;&#160;&#160;&#160;&#160;&#160;</text>
<text text-anchor="start" x="326.38" y="-243.5" font-family="Arial" font-size="10.00"> &#160;&#160;[&quot;Den Danske Ordbog&quot;; &quot;Merriam&#45;Webste…]</text>
<text text-anchor="start" x="326.38" y="-233.5" font-family="Arial" font-size="10.00">|text Language</text>
<text text-anchor="start" x="326.38" y="-223.5" font-family="Arial" font-size="10.00"> &#160;</text>
<text text-anchor="start" x="332.38" y="-223.5" font-family="Arial" font-style="italic" font-size="10.00">case(Name, &quot;Den Danske Ordbog&quot;: &quot;dan…</text>
<text text-anchor="start" x="519.88" y="-223.5" font-family="Arial" font-size="10.00">…</text>
<text text-anchor="start" x="326.38" y="-213.5" font-family="Arial" font-size="10.00">|text LookupUrl</text>
<text text-anchor="start" x="326.38" y="-203.5" font-family="Arial" font-size="10.00"> &#160;</text>
<text text-anchor="start" x="332.38" y="-203.5" font-family="Arial" font-style="italic" font-size="10.00">case(Name,</text>
<text text-anchor="start" x="384.88" y="-203.5" font-family="Arial" font-size="10.00">…</text>
<text text-anchor="start" x="326.38" y="-193.5" font-family="Arial" font-size="10.00">|text FoundFragment</text>
<text text-anchor="start" x="326.38" y="-183.5" font-family="Arial" font-size="10.00"> &#160;</text>
<text text-anchor="start" x="332.38" y="-183.5" font-family="Arial" font-style="italic" font-size="10.00">case(Name,</text>
<text text-anchor="start" x="384.88" y="-183.5" font-family="Arial" font-size="10.00">…</text>
<polyline fill="none" stroke="black" points="532.62,-179 323.38,-179"/>
<text text-anchor="start" x="326.38" y="-166.5" font-family="Arial" font-size="10.00">Contains(word)</text>
<text text-anchor="start" x="326.38" y="-154.5" font-family="Arial" font-size="10.00"> &#160;LookupUrl.replace(&quot;&lt;word&gt;&quot;, word).do…</text>
</a>
</g>
</g>
<!-- _18_Wordle&#45;&#45;_21_Dictionary -->
<g id="edge3" class="edge">
<title>_18_Wordle&#45;&#45;_21_Dictionary</title>
<path fill="none" stroke="black" stroke-dasharray="5,2" d="M402.86,-563.17C407.18,-512.94 412.06,-456.22 416.37,-406.22"/>
<polygon fill="black" stroke="black" points="417.2,-396.54 420.82,-406.89 416.87,-400.3 416.34,-406.5 416.34,-406.5 416.34,-406.5 416.87,-400.3 411.86,-406.11 417.2,-396.54"/>
<text text-anchor="start" x="342.3" y="-397.82" font-family="Arial" font-size="10.00">»GameDictionary</text>
</g>
<!-- _21_About -->
<g id="node3" class="node">
<title>_21_About</title>
<g id="a_node3"><a xlink:href="WebWordle.dbquity#:~:text=class%20About" xlink:title="model.dbquity.com/examples:WebWordle\Wordle\About &#45;&gt; WebWordle.dbquity#:~:text=class%20About" target="_parent">
<path fill="none" stroke="black" d="M190.38,-757C190.38,-757 35.62,-757 35.62,-757 29.62,-757 23.62,-751 23.62,-745 23.62,-745 23.62,-659 23.62,-659 23.62,-653 29.62,-647 35.62,-647 35.62,-647 190.38,-647 190.38,-647 196.38,-647 202.38,-653 202.38,-659 202.38,-659 202.38,-745 202.38,-745 202.38,-751 196.38,-757 190.38,-757"/>
<polyline fill="none" stroke="black" points="31.62,-723 194.38,-723"/>
<text text-anchor="start" x="96.12" y="-740.5" font-family="Arial" font-size="10.00">«class»</text>
<text text-anchor="start" x="100.25" y="-728.5" font-family="Arial" font-size="10.00">About</text>
<polyline fill="none" stroke="black" points="194.38,-723 31.62,-723"/>
<text text-anchor="start" x="34.62" y="-710.5" font-family="Arial" font-size="10.00">title: &quot;Out of&quot;||Occurrences||&quot;word …</text>
<polyline fill="none" stroke="black" points="194.38,-705 31.62,-705"/>
<text text-anchor="start" x="34.62" y="-692.5" font-family="Arial" font-size="10.00">text WebPage</text>
<text text-anchor="start" x="34.62" y="-680.5" font-family="Arial" font-size="10.00">integer LetterCount</text>
<text text-anchor="start" x="34.62" y="-668.5" font-family="Arial" font-size="10.00">integer Occurrences</text>
<text text-anchor="start" x="34.62" y="-656.5" font-family="Arial" font-size="10.00">integer Distincts</text>
</a>
</g>
</g>
<!-- _21_Game -->
<g id="node4" class="node">
<title>_21_Game</title>
<g id="a_node4"><a xlink:href="WebWordle.dbquity#:~:text=entity%20Game" xlink:title="model.dbquity.com/examples:WebWordle\Wordle%3ame &#45;&gt; WebWordle.dbquity#:~:text=entity%20Game" target="_parent">
<polygon fill="none" stroke="black" points="784.5,-924 591.5,-924 591.5,-480 784.5,-480 784.5,-924"/>
<polyline fill="none" stroke="black" points="599.5,-890 776.5,-890"/>
<text text-anchor="start" x="670.75" y="-907.5" font-family="Arial" font-size="10.00">«entity»</text>
<text text-anchor="start" x="673.38" y="-895.5" font-family="Arial" font-size="10.00">/Game</text>
<polyline fill="none" stroke="black" points="776.5,-890 599.5,-890"/>
<text text-anchor="start" x="602.5" y="-878.5" font-family="Arial" font-style="italic" font-size="10.00">if Guessed then</text>
<text text-anchor="start" x="602.5" y="-868.5" font-family="Arial" font-style="italic" font-size="10.00"> &#160;&#160;&#160;&quot;Congratulations!&quot;||By||&quot;guessed…</text>
<text text-anchor="start" x="602.5" y="-858.5" font-family="Arial" font-style="italic" font-size="10.00"> &#160;&#160;&#160;&quot;in attempt number&quot;||(a:Attempts…</text>
<text text-anchor="start" x="602.5" y="-848.5" font-family="Arial" font-style="italic" font-size="10.00"> &#160;&#160;&#160;(if a &lt; 3 then &quot;!!&quot; else if a &lt; …</text>
<text text-anchor="start" x="602.5" y="-838.5" font-family="Arial" font-style="italic" font-size="10.00">else if Guessed = nil then</text>
<text text-anchor="start" x="602.5" y="-828.5" font-family="Arial" font-style="italic" font-size="10.00"> &#160;&#160;&#160;About//</text>
<text text-anchor="start" x="602.5" y="-818.5" font-family="Arial" font-style="italic" font-size="10.00"> &#160;&#160;&#160;&quot;You have&quot;||(if (a:(AttemptsAllo…</text>
<text text-anchor="start" x="602.5" y="-808.5" font-family="Arial" font-style="italic" font-size="10.00"> &#160;&#160;&#160;&quot;remaining attempt&quot;|(if a &lt;&gt; 1 t…</text>
<text text-anchor="start" x="602.5" y="-798.5" font-family="Arial" font-style="italic" font-size="10.00"> &#160;&#160;&#160;(if not GuessIsValid() then</text>
<text text-anchor="start" x="602.5" y="-788.5" font-family="Arial" font-style="italic" font-size="10.00"> &#160;&#160;&#160;&#160;&#160;&#160;&#160;&quot;Please enter&quot;||LetterCount|…</text>
<text text-anchor="start" x="755.5" y="-788.5" font-family="Arial" font-size="10.00"> </text>
<text text-anchor="start" x="758.5" y="-788.5" font-family="Arial" font-style="italic" font-size="10.00">~</text>
<polyline fill="none" stroke="black" points="776.5,-784 599.5,-784"/>
<text text-anchor="start" x="602.5" y="-771.5" font-family="Arial" font-size="10.00">{Guessed &lt;&gt; false}</text>
<text text-anchor="start" x="602.5" y="-759.5" font-family="Arial" font-size="10.00">title: identity</text>
<text text-anchor="start" x="602.5" y="-747.5" font-family="Arial" font-size="10.00">readonly: true</text>
<text text-anchor="start" x="602.5" y="-735.5" font-family="Arial" font-size="10.00">oncreate: add(KeyboardRow, a:&#39;Q&#39;, b:…</text>
<polyline fill="none" stroke="black" points="776.5,-730 599.5,-730"/>
<text text-anchor="start" x="602.5" y="-717.5" font-family="Arial" font-size="10.00" fill="lightgray">/integer AttemptsAllowed</text>
<text text-anchor="start" x="602.5" y="-705.5" font-family="Arial" font-size="10.00" fill="lightgray"> &#160;usercount * (LetterCount &#45; 1) + Lett…</text>
<text text-anchor="start" x="602.5" y="-693.5" font-family="Arial" font-size="10.00">/integer AttemptCount</text>
<text text-anchor="start" x="602.5" y="-681.5" font-family="Arial" font-size="10.00"> &#160;Attempts.count()</text>
<text text-anchor="start" x="602.5" y="-669.5" font-family="Arial" font-size="10.00">text TheWord</text>
<text text-anchor="start" x="602.5" y="-657.5" font-family="Arial" font-size="10.00" fill="lightgray">/integer LetterCount</text>
<text text-anchor="start" x="602.5" y="-645.5" font-family="Arial" font-size="10.00" fill="lightgray"> &#160;TheWord.length()</text>
<text text-anchor="start" x="602.5" y="-633.5" font-family="Arial" font-size="10.00">/text Played</text>
<text text-anchor="start" x="602.5" y="-621.5" font-family="Arial" font-size="10.00"> &#160;created|&quot;..&quot;//…</text>
<text text-anchor="start" x="602.5" y="-609.5" font-family="Arial" font-size="10.00" fill="lightgray">boolean Guessed</text>
<text text-anchor="start" x="602.5" y="-597.5" font-family="Arial" font-size="10.00">/text By</text>
<text text-anchor="start" x="602.5" y="-585.5" font-family="Arial" font-size="10.00"> &#160;if Guessed then Attempts.last().by</text>
<text text-anchor="start" x="602.5" y="-573.5" font-family="Arial" font-size="10.00">/text WebPage</text>
<text text-anchor="start" x="602.5" y="-561.5" font-family="Arial" font-size="10.00"> &#160;About.WebPage</text>
<text text-anchor="start" x="602.5" y="-549.5" font-family="Arial" font-size="10.00" fill="lightgray">About About</text>
<polyline fill="none" stroke="black" points="776.5,-544 599.5,-544"/>
<text text-anchor="start" x="602.5" y="-531.5" font-family="Arial" font-size="10.00">GuessIsValid()</text>
<text text-anchor="start" x="602.5" y="-519.5" font-family="Arial" font-size="10.00"> &#160;if (g: Attempts.draft().title).lengt…</text>
<polyline fill="none" stroke="black" points="776.5,-514 599.5,-514"/>
<text text-anchor="start" x="602.5" y="-501.5" font-family="Arial" font-size="10.00">[Guessed = ni…]Submit()✓</text>
<text text-anchor="start" x="602.5" y="-489.5" font-family="Arial" font-size="10.00"> &#160;guess: Attempts.draft();…</text>
</a>
</g>
</g>
<!-- _21_Game&#45;&#45;_21_Dictionary -->
<g id="edge4" class="edge">
<title>_21_Game&#45;&#45;_21_Dictionary</title>
<path fill="none" stroke="black" d="M591.07,-485.19C590.05,-483.45 589.03,-481.72 588,-480 572.85,-454.68 555.17,-428.84 537.19,-404.34"/>
<polygon fill="black" stroke="black" points="531.28,-396.36 540.84,-401.72 533.53,-399.4 537.23,-404.4 537.23,-404.4 537.23,-404.4 533.53,-399.4 533.61,-407.08 531.28,-396.36"/>
</g>
<!-- _49_Attempt -->
<g id="node5" class="node">
<title>_49_Attempt</title>
<g id="a_node5"><a xlink:href="WebWordle.dbquity#:~:text=entity%20Attempt" xlink:title="model.dbquity.com/examples:WebWordle\Wordle%3ame\Attempt &#45;&gt; WebWordle.dbquity#:~:text=entity%20Attempt" target="_parent">
<polygon fill="none" stroke="black" points="790.12,-432 585.88,-432 585.88,-108 790.12,-108 790.12,-432"/>
<polyline fill="none" stroke="black" points="593.88,-398 782.12,-398"/>
<text text-anchor="start" x="670.75" y="-415.5" font-family="Arial" font-size="10.00">«entity»</text>
<text text-anchor="start" x="670.75" y="-403.5" font-family="Arial" font-size="10.00">Attempt</text>
<polyline fill="none" stroke="black" points="782.12,-398 593.88,-398"/>
<text text-anchor="start" x="596.88" y="-385.5" font-family="Arial" font-size="10.00">importance: promoted</text>
<text text-anchor="start" x="596.88" y="-373.5" font-family="Arial" font-size="10.00">title: A|B|C|D|E|F|G|H</text>
<text text-anchor="start" x="596.88" y="-361.5" font-family="Arial" font-size="10.00">readonly: issaved or Game.Guessed &lt;&gt;…</text>
<text text-anchor="start" x="596.88" y="-349.5" font-family="Arial" font-size="10.00">undeletable: true</text>
<text text-anchor="start" x="596.88" y="-337.5" font-family="Arial" font-size="10.00">styling: A: GetStyle(A, 1), B: GetSt…</text>
<polyline fill="none" stroke="black" points="782.12,-332 593.88,-332"/>
<text text-anchor="start" x="596.88" y="-320.5" font-family="Arial" font-size="10.00">character A</text>
<text text-anchor="start" x="596.88" y="-310.5" font-family="Arial" font-size="10.00">character B</text>
<text text-anchor="start" x="596.88" y="-300.5" font-family="Arial" font-size="10.00">character C</text>
<text text-anchor="start" x="596.88" y="-290.5" font-family="Arial" font-size="10.00">character D</text>
<text text-anchor="start" x="596.88" y="-280.5" font-family="Arial" font-size="10.00">character E</text>
<text text-anchor="start" x="596.88" y="-270.5" font-family="Arial" font-size="10.00">character F</text>
<text text-anchor="start" x="596.88" y="-260.5" font-family="Arial" font-size="10.00">character G</text>
<text text-anchor="start" x="596.88" y="-250.5" font-family="Arial" font-size="10.00">character H</text>
<text text-anchor="start" x="596.88" y="-240.5" font-family="Arial" font-size="10.00" fill="lightgray">»boolean IsAWord</text>
<text text-anchor="start" x="596.88" y="-230.5" font-family="Arial" font-size="10.00">/text by</text>
<text text-anchor="start" x="596.88" y="-220.5" font-family="Arial" font-size="10.00"> &#160;createdby</text>
<text text-anchor="start" x="596.88" y="-210.5" font-family="Arial" font-size="10.00" fill="lightgray">»|integer In</text>
<text text-anchor="start" x="596.88" y="-200.5" font-family="Arial" font-size="10.00" fill="lightgray"> &#160;</text>
<text text-anchor="start" x="602.88" y="-200.5" font-family="Arial" font-style="italic" font-size="10.00" fill="lightgray">1</text>
<polyline fill="none" stroke="black" points="782.12,-196 593.88,-196"/>
<text text-anchor="start" x="596.88" y="-183.5" font-family="Arial" font-size="10.00">GetStyle(Letter, Index)</text>
<text text-anchor="start" x="596.88" y="-171.5" font-family="Arial" font-size="10.00"> &#160;if Index &lt;= letters then (…</text>
<polyline fill="none" stroke="black" points="782.12,-166 593.88,-166"/>
<text text-anchor="start" x="596.88" y="-153.5" font-family="Arial" font-size="10.00">[isdraft and …]SetKey(key)</text>
<text text-anchor="start" x="596.88" y="-141.5" font-family="Arial" font-size="10.00"> &#160;if key = &#39;!&#39; then (…</text>
<text text-anchor="start" x="596.88" y="-129.5" font-family="Arial" font-size="10.00">SetLetter(key)</text>
<text text-anchor="start" x="596.88" y="-117.5" font-family="Arial" font-size="10.00"> &#160;if In=1 then set(A:key) else if In=2…</text>
</a>
</g>
</g>
<!-- _21_Game&#45;&#45;_49_Attempt -->
<g id="edge1" class="edge">
<title>_21_Game&#45;&#45;_49_Attempt</title>
<path fill="none" stroke="black" d="M688,-467.01C688,-455.33 688,-443.73 688,-432.35"/>
<polygon fill="black" stroke="black" points="688,-466.8 692,-472.8 688,-478.8 684,-472.8 688,-466.8"/>
<text text-anchor="start" x="688" y="-452.5" font-family="Arial" font-size="10.00">Attempts</text>
<text text-anchor="middle" x="686.12" y="-434.85" font-family="Arial" font-size="10.00">*</text>
</g>
<!-- _49_KeyboardRow -->
<g id="node6" class="node">
<title>_49_KeyboardRow</title>
<g id="a_node6"><a xlink:href="WebWordle.dbquity#:~:text=entity%20KeyboardRow" xlink:title="model.dbquity.com/examples:WebWordle\Wordle%3ame\KeyboardRow &#45;&gt; WebWordle.dbquity#:~:text=entity%20KeyboardRow" target="_parent">
<polygon fill="none" stroke="black" points="1008.25,-415 813.75,-415 813.75,-125 1008.25,-125 1008.25,-415"/>
<polyline fill="none" stroke="black" points="821.75,-381 1000.25,-381"/>
<text text-anchor="start" x="893.75" y="-398.5" font-family="Arial" font-size="10.00">«entity»</text>
<text text-anchor="start" x="879.5" y="-386.5" font-family="Arial" font-size="10.00">/KeyboardRow</text>
<polyline fill="none" stroke="black" points="1000.25,-381 821.75,-381"/>
<text text-anchor="start" x="824.75" y="-368.5" font-family="Arial" font-size="10.00">importance: promoted</text>
<text text-anchor="start" x="824.75" y="-356.5" font-family="Arial" font-size="10.00">readonly: true</text>
<text text-anchor="start" x="824.75" y="-344.5" font-family="Arial" font-size="10.00">styling: a: GetStyle(a), b: GetStyle…</text>
<polyline fill="none" stroke="black" points="1000.25,-339 821.75,-339"/>
<text text-anchor="start" x="824.75" y="-326.5" font-family="Arial" font-size="10.00">character a</text>
<text text-anchor="start" x="824.75" y="-314.5" font-family="Arial" font-size="10.00">character b</text>
<text text-anchor="start" x="824.75" y="-302.5" font-family="Arial" font-size="10.00">character c</text>
<text text-anchor="start" x="824.75" y="-290.5" font-family="Arial" font-size="10.00">character d</text>
<text text-anchor="start" x="824.75" y="-278.5" font-family="Arial" font-size="10.00">character e</text>
<text text-anchor="start" x="824.75" y="-266.5" font-family="Arial" font-size="10.00">character f</text>
<text text-anchor="start" x="824.75" y="-254.5" font-family="Arial" font-size="10.00">character g</text>
<text text-anchor="start" x="824.75" y="-242.5" font-family="Arial" font-size="10.00">character h</text>
<text text-anchor="start" x="824.75" y="-230.5" font-family="Arial" font-size="10.00">character i</text>
<text text-anchor="start" x="824.75" y="-218.5" font-family="Arial" font-size="10.00">character j</text>
<polyline fill="none" stroke="black" points="1000.25,-213 821.75,-213"/>
<text text-anchor="start" x="824.75" y="-200.5" font-family="Arial" font-size="10.00">GetStyle(key)</text>
<text text-anchor="start" x="824.75" y="-188.5" font-family="Arial" font-size="10.00"> &#160;case(key,…</text>
<text text-anchor="start" x="824.75" y="-176.5" font-family="Arial" font-size="10.00">GoodOrBad(key)</text>
<text text-anchor="start" x="824.75" y="-164.5" font-family="Arial" font-size="10.00"> &#160;if Game.Attempts.any(title.contains(…</text>
<polyline fill="none" stroke="black" points="1000.25,-159 821.75,-159"/>
<text text-anchor="start" x="824.75" y="-146.5" font-family="Arial" font-size="10.00">SetKey(key)</text>
<text text-anchor="start" x="824.75" y="-134.5" font-family="Arial" font-size="10.00"> &#160;if (draft: Game.Attempts.draft()) th…</text>
</a>
</g>
</g>
<!-- _21_Game&#45;&#45;_49_KeyboardRow -->
<g id="edge2" class="edge">
<title>_21_Game&#45;&#45;_49_KeyboardRow</title>
<path fill="none" stroke="black" d="M790.69,-503C805.98,-473.51 821.49,-443.59 836.07,-415.48"/>
<polygon fill="black" stroke="black" points="790.78,-502.82 791.57,-509.99 785.25,-513.47 784.46,-506.3 790.78,-502.82"/>
<text text-anchor="start" x="812" y="-452.5" font-family="Arial" font-size="10.00">Keyboard</text>
<text text-anchor="middle" x="834.2" y="-417.98" font-family="Arial" font-size="10.00">*</text>
</g>
</g>
</svg>
