<?xml version="1.0" encoding="UTF-8" standalone="no"?>
<!DOCTYPE svg PUBLIC "-//W3C//DTD SVG 1.1//EN"
 "http://www.w3.org/Graphics/SVG/1.1/DTD/svg11.dtd">
<!-- Generated by graphviz version 9.0.0 (20230911.1827)
 -->
<!-- Pages: 1 -->
<svg width="484pt" height="544pt"
 viewBox="0.00 0.00 484.25 544.00" xmlns="http://www.w3.org/2000/svg" xmlns:xlink="http://www.w3.org/1999/xlink">
<g id="graph0" class="graph" transform="scale(1 1) rotate(0) translate(4 540)">
<polygon fill="white" stroke="none" points="-4,4 -4,-540 480.25,-540 480.25,4 -4,4"/>
<text text-anchor="start" x="12" y="-10.5" font-family="Arial" font-size="10.00">Dbquity CLI v0.10.8172</text>
<text text-anchor="start" x="117.75" y="-10.5" font-family="Arial" font-size="10.00"> &#160;&#160;&#160;dot ShoppingList * &#45;filter::ShoppingList\ +m &#45;r &#160;&#160;&#160;</text>
<text text-anchor="start" x="342.75" y="-10.5" font-family="Arial" font-size="10.00">2024&#45;04&#45;17 10:27:33 +02:00</text>
<g id="clust1" class="cluster">
<title>cluster_20_ShoppingList</title>
<g id="a_clust1"><a xlink:href="ShoppingList.dbquity" xlink:title="model.dbquity.com/examples:ShoppingList&#10; &#45;&gt; ShoppingList.dbquity" target="_parent">
<polygon fill="none" stroke="black" points="28.12,-36 28.12,-528 448.12,-528 448.12,-36 28.12,-36"/>
<text text-anchor="middle" x="238.12" y="-514.5" font-family="Arial" font-size="10.00">site model.dbquity.com/examples:ShoppingList v1.0.0</text>
</a>
</g>
</g>
<g id="clust2" class="cluster">
<title>cluster_23_Setup</title>
<g id="a_clust2"><a xlink:href="ShoppingList.dbquity#:~:text=area%20Setup" xlink:title="model.dbquity.com/examples:ShoppingList\Setup&#10; &#45;&gt; ShoppingList.dbquity#:~:text=area%20Setup" target="_parent">
<polygon fill="none" stroke="black" points="280.12,-44 280.12,-350 440.12,-350 440.12,-44 280.12,-44"/>
<text text-anchor="start" x="335.38" y="-337.5" font-family="Arial" font-size="10.00">area </text>
<text text-anchor="start" x="357.12" y="-337.5" font-family="Arial" font-weight="bold" font-size="10.00">Setup</text>
</a>
</g>
</g>
<g id="clust3" class="cluster">
<title>cluster_37_Shopping</title>
<g id="a_clust3"><a xlink:href="ShoppingList.dbquity#:~:text=area%20Shopping" xlink:title="model.dbquity.com/examples:ShoppingList\Shopping&#10; &#45;&gt; ShoppingList.dbquity#:~:text=area%20Shopping" target="_parent">
<polygon fill="none" stroke="black" points="36.12,-203 36.12,-500 258.12,-500 258.12,-203 36.12,-203"/>
<text text-anchor="start" x="113.38" y="-487.5" font-family="Arial" font-size="10.00">area </text>
<text text-anchor="start" x="135.12" y="-487.5" font-family="Arial" font-weight="bold" font-size="10.00">Shopping</text>
</a>
</g>
</g>
<!-- _23_Unit -->
<g id="node1" class="node">
<title>_23_Unit</title>
<g id="a_node1"><a xlink:href="ShoppingList.dbquity#:~:text=entity%20Unit" xlink:title="model.dbquity.com/examples:ShoppingList\Setup\Unit&#10; &#45;&gt; ShoppingList.dbquity#:~:text=entity%20Unit" target="_parent">
<polygon fill="none" stroke="black" points="415.38,-162 292.88,-162 292.88,-52 415.38,-52 415.38,-162"/>
<polyline fill="none" stroke="black" points="300.88,-128 407.38,-128"/>
<text text-anchor="start" x="336.88" y="-145.5" font-family="Arial" font-size="10.00">«entity»</text>
<text text-anchor="start" x="345.5" y="-133.5" font-family="Arial" font-size="10.00">Unit</text>
<polyline fill="none" stroke="black" points="407.38,-128 300.88,-128"/>
<text text-anchor="start" x="303.88" y="-115.5" font-family="Arial" font-size="10.00">collection: Units</text>
<text text-anchor="start" x="303.88" y="-103.5" font-family="Arial" font-size="10.00">identity: Name</text>
<polyline fill="none" stroke="black" points="407.38,-98 300.88,-98"/>
<text text-anchor="start" x="303.88" y="-85.5" font-family="Arial" font-size="10.00">=text Name</text>
<text text-anchor="start" x="303.88" y="-73.5" font-family="Arial" font-size="10.00">text Description*</text>
<text text-anchor="start" x="303.88" y="-61.5" font-family="Arial" font-size="10.00">decimal DefaultAmount</text>
</a>
</g>
</g>
<!-- _23_Item -->
<g id="node2" class="node">
<title>_23_Item</title>
<g id="a_node2"><a xlink:href="ShoppingList.dbquity#:~:text=entity%20Item" xlink:title="model.dbquity.com/examples:ShoppingList\Setup\Item&#10; &#45;&gt; ShoppingList.dbquity#:~:text=entity%20Item" target="_parent">
<polygon fill="none" stroke="black" points="431.88,-322 288.38,-322 288.38,-198 431.88,-198 431.88,-322"/>
<polyline fill="none" stroke="black" points="296.38,-288 423.88,-288"/>
<text text-anchor="start" x="342.88" y="-305.5" font-family="Arial" font-size="10.00">«entity»</text>
<text text-anchor="start" x="350.75" y="-293.5" font-family="Arial" font-size="10.00">Item</text>
<polyline fill="none" stroke="black" points="423.88,-288 296.38,-288"/>
<text text-anchor="start" x="299.38" y="-275.5" font-family="Arial" font-size="10.00">collection: Items</text>
<text text-anchor="start" x="299.38" y="-263.5" font-family="Arial" font-size="10.00">identity: Name</text>
<polyline fill="none" stroke="black" points="423.88,-258 296.38,-258"/>
<text text-anchor="start" x="299.38" y="-246.5" font-family="Arial" font-size="10.00">=text Name</text>
<text text-anchor="start" x="299.38" y="-236.5" font-family="Arial" font-size="10.00">text Description*</text>
<text text-anchor="start" x="299.38" y="-226.5" font-family="Arial" font-size="10.00">|decimal DefaultAmount</text>
<text text-anchor="start" x="299.38" y="-216.5" font-family="Arial" font-size="10.00"> &#160;</text>
<text text-anchor="start" x="305.38" y="-216.5" font-family="Arial" font-style="italic" font-size="10.00">DefaultUnit.DefaultAmount</text>
<text text-anchor="start" x="299.38" y="-206.5" font-family="Arial" font-size="10.00">link DefaultUnit : Unit</text>
</a>
</g>
</g>
<!-- _23_Item&#45;&#45;_23_Unit -->
<g id="edge1" class="edge">
<title>_23_Item&#45;&#45;_23_Unit</title>
<path fill="none" stroke="black" d="M357.68,-197.58C357.36,-189.5 357.03,-181.19 356.71,-173.05"/>
<polygon fill="black" stroke="black" points="356.32,-163.31 361.22,-173.12 356.47,-167.08 356.72,-173.3 356.72,-173.3 356.72,-173.3 356.47,-167.08 352.22,-173.48 356.32,-163.31"/>
<text text-anchor="start" x="309.02" y="-164.59" font-family="Arial" font-size="10.00">DefaultUnit</text>
</g>
<!-- _37_List -->
<g id="node3" class="node">
<title>_37_List</title>
<g id="a_node3"><a xlink:href="ShoppingList.dbquity#:~:text=entity%20List" xlink:title="model.dbquity.com/examples:ShoppingList\Shopping&lt;TABLE&gt;ist&#10; &#45;&gt; ShoppingList.dbquity#:~:text=entity%20List" target="_parent">
<polygon fill="none" stroke="black" points="250.38,-309 43.88,-309 43.88,-211 250.38,-211 250.38,-309"/>
<polyline fill="none" stroke="black" points="51.88,-275 242.38,-275"/>
<text text-anchor="start" x="129.88" y="-292.5" font-family="Arial" font-size="10.00">«entity»</text>
<text text-anchor="start" x="139.25" y="-280.5" font-family="Arial" font-size="10.00">List</text>
<polyline fill="none" stroke="black" points="242.38,-275 51.88,-275"/>
<text text-anchor="start" x="54.88" y="-262.5" font-family="Arial" font-size="10.00">importance: Promoted</text>
<text text-anchor="start" x="54.88" y="-250.5" font-family="Arial" font-size="10.00">collection: Lists</text>
<polyline fill="none" stroke="black" points="242.38,-245 51.88,-245"/>
<text text-anchor="start" x="54.88" y="-232.5" font-family="Arial" font-size="10.00">/decimal Progress</text>
<text text-anchor="start" x="54.88" y="-220.5" font-family="Arial" font-size="10.00"> &#160;if (n: (tobuy: List@ToBuy).count()) then…</text>
</a>
</g>
</g>
<!-- _37_ToBuy -->
<g id="node4" class="node">
<title>_37_ToBuy</title>
<g id="a_node4"><a xlink:href="ShoppingList.dbquity#:~:text=association%20ToBuy" xlink:title="model.dbquity.com/examples:ShoppingList\Shopping\ToBuy&#10; &#45;&gt; ShoppingList.dbquity#:~:text=association%20ToBuy" target="_parent">
<polygon fill="none" stroke="black" points="249.62,-472 134.62,-472 134.62,-358 249.62,-358 249.62,-472"/>
<polyline fill="none" stroke="black" points="146.62,-472 134.62,-460"/>
<polyline fill="none" stroke="black" points="134.62,-370 146.62,-358"/>
<polyline fill="none" stroke="black" points="237.62,-358 249.62,-370"/>
<polyline fill="none" stroke="black" points="249.62,-460 237.62,-472"/>
<polyline fill="none" stroke="black" points="142.62,-438 241.62,-438"/>
<text text-anchor="start" x="162.12" y="-455.5" font-family="Arial" font-size="10.00">«association»</text>
<text text-anchor="start" x="178.25" y="-443.5" font-family="Arial" font-size="10.00">ToBuy</text>
<polyline fill="none" stroke="black" points="241.62,-438 142.62,-438"/>
<text text-anchor="start" x="145.62" y="-426.5" font-family="Arial" font-size="10.00">◇end List</text>
<text text-anchor="start" x="145.62" y="-416.5" font-family="Arial" font-size="10.00">end Item</text>
<text text-anchor="start" x="145.62" y="-406.5" font-family="Arial" font-size="10.00">|decimal Amount</text>
<text text-anchor="start" x="145.62" y="-396.5" font-family="Arial" font-size="10.00"> &#160;</text>
<text text-anchor="start" x="151.62" y="-396.5" font-family="Arial" font-style="italic" font-size="10.00">Item.DefaultAmount</text>
<text text-anchor="start" x="145.62" y="-386.5" font-family="Arial" font-size="10.00">|link Unit</text>
<text text-anchor="start" x="145.62" y="-376.5" font-family="Arial" font-size="10.00"> &#160;</text>
<text text-anchor="start" x="151.62" y="-376.5" font-family="Arial" font-style="italic" font-size="10.00">Item.DefaultUnit</text>
<text text-anchor="start" x="145.62" y="-366.5" font-family="Arial" font-size="10.00">decimal Fulfillment</text>
</a>
</g>
</g>
<!-- _37_ToBuy&#45;&#45;_23_Unit -->
<g id="edge4" class="edge">
<title>_37_ToBuy&#45;&#45;_23_Unit</title>
<path fill="none" stroke="black" d="M250.01,-364.49C253.47,-359.86 256.58,-355.02 259.12,-350 289.96,-289.24 251.79,-260.41 279.12,-198 283.14,-188.83 288.38,-179.87 294.23,-171.36"/>
<polygon fill="black" stroke="black" points="300.07,-163.31 297.84,-174.04 297.85,-166.37 294.2,-171.4 294.2,-171.4 294.2,-171.4 297.85,-166.37 290.56,-168.76 300.07,-163.31"/>
</g>
<!-- _37_ToBuy&#45;&#45;_23_Item -->
<g id="edge3" class="edge">
<title>_37_ToBuy&#45;&#45;_23_Item</title>
<path fill="none" stroke="black" d="M249.87,-370.59C258.16,-363.88 266.47,-356.88 274.12,-350 283.71,-341.38 293.52,-331.91 302.94,-322.46"/>
<text text-anchor="start" x="287.94" y="-324.96" font-family="Arial" font-size="10.00">1..*</text>
<text text-anchor="start" x="249.87" y="-373.09" font-family="Arial" font-size="10.00">*</text>
</g>
<!-- _37_ToBuy&#45;&#45;_37_List -->
<g id="edge2" class="edge">
<title>_37_ToBuy&#45;&#45;_37_List</title>
<path fill="none" stroke="black" d="M175.62,-357.9C172.12,-346 168.42,-333.39 164.87,-321.34"/>
<polygon fill="none" stroke="black" points="164.89,-321.41 159.36,-316.79 161.51,-309.9 167.04,-314.53 164.89,-321.41"/>
<text text-anchor="start" x="157.5" y="-311.54" font-family="Arial" font-size="10.00">*</text>
<text text-anchor="start" x="160.62" y="-348.4" font-family="Arial" font-size="10.00">1..*</text>
</g>
</g>
</svg>
