<?xml version="1.0" encoding="UTF-8" standalone="no"?>
<!DOCTYPE svg PUBLIC "-//W3C//DTD SVG 1.1//EN"
 "http://www.w3.org/Graphics/SVG/1.1/DTD/svg11.dtd">
<!-- Generated by graphviz version 9.0.0 (20230911.1827)
 -->
<!-- Pages: 1 -->
<svg width="323pt" height="305pt"
 viewBox="0.00 0.00 323.00 305.00" xmlns="http://www.w3.org/2000/svg" xmlns:xlink="http://www.w3.org/1999/xlink">
<g id="graph0" class="graph" transform="scale(1 1) rotate(0) translate(4 301)">
<polygon fill="white" stroke="none" points="-4,4 -4,-301 319,-301 319,4 -4,4"/>
<g id="clust1" class="cluster">
<title>cluster_20_ShoppingList</title>
<g id="a_clust1"><a xlink:href="ShoppingList.dbquity" xlink:title=":ShoppingList&#10; &#45;&gt; ShoppingList.dbquity" target="_parent">
<polygon fill="none" stroke="black" points="8,-8 8,-289 307,-289 307,-8 8,-8"/>
<text text-anchor="middle" x="157.5" y="-275.5" font-family="Arial" font-size="10.00">site ShoppingList</text>
</a>
</g>
</g>
<g id="clust2" class="cluster">
<title>cluster_23_Shopping</title>
<g id="a_clust2"><a xlink:href="ShoppingList.dbquity#:~:text=area%20Shopping" xlink:title=":ShoppingList\Shopping&#10; &#45;&gt; ShoppingList.dbquity#:~:text=area%20Shopping" target="_parent">
<polygon fill="none" stroke="black" points="16,-16 16,-261 299,-261 299,-16 16,-16"/>
<text text-anchor="start" x="24" y="-248.5" font-family="Arial" font-size="10.00">area </text>
<text text-anchor="start" x="45.75" y="-248.5" font-family="Arial" font-weight="bold" font-size="10.00">Shopping</text>
</a>
</g>
</g>
<!-- _23_Shop -->
<g id="node1" class="node">
<title>_23_Shop</title>
<g id="a_node1"><a xlink:href="ShoppingList.dbquity#:~:text=entity%20Shop" xlink:title=":ShoppingList\Shopping\Shop&#10; &#45;&gt; ShoppingList.dbquity#:~:text=entity%20Shop" target="_parent">
<polygon fill="none" stroke="black" points="121.5,-110 24.5,-110 24.5,-24 121.5,-24 121.5,-110"/>
<polyline fill="none" stroke="black" points="32.5,-76 113.5,-76"/>
<text text-anchor="start" x="55.75" y="-93.5" font-family="Arial" font-size="10.00">«entity»</text>
<text text-anchor="start" x="61.75" y="-81.5" font-family="Arial" font-size="10.00">Shop</text>
<polyline fill="none" stroke="black" points="113.5,-76 32.5,-76"/>
<text text-anchor="start" x="35.5" y="-63.5" font-family="Arial" font-size="10.00">collection: Shops</text>
<text text-anchor="start" x="35.5" y="-51.5" font-family="Arial" font-size="10.00">identity: Name</text>
<polyline fill="none" stroke="black" points="113.5,-46 32.5,-46"/>
<text text-anchor="start" x="35.5" y="-33.5" font-family="Arial" font-size="10.00">=text Name</text>
</a>
</g>
</g>
<!-- _23_Item -->
<g id="node2" class="node">
<title>_23_Item</title>
<g id="a_node2"><a xlink:href="ShoppingList.dbquity#:~:text=entity%20Item" xlink:title=":ShoppingList\Shopping\Item&#10; &#45;&gt; ShoppingList.dbquity#:~:text=entity%20Item" target="_parent">
<polygon fill="none" stroke="black" points="290.62,-233 197.38,-233 197.38,-147 290.62,-147 290.62,-233"/>
<polyline fill="none" stroke="black" points="205.38,-199 282.62,-199"/>
<text text-anchor="start" x="226.75" y="-216.5" font-family="Arial" font-size="10.00">«entity»</text>
<text text-anchor="start" x="234.62" y="-204.5" font-family="Arial" font-size="10.00">Item</text>
<polyline fill="none" stroke="black" points="282.62,-199 205.38,-199"/>
<text text-anchor="start" x="208.38" y="-186.5" font-family="Arial" font-size="10.00">collection: Items</text>
<text text-anchor="start" x="208.38" y="-174.5" font-family="Arial" font-size="10.00">identity: Name</text>
<polyline fill="none" stroke="black" points="282.62,-169 205.38,-169"/>
<text text-anchor="start" x="208.38" y="-156.5" font-family="Arial" font-size="10.00">=text Name</text>
</a>
</g>
</g>
<!-- _23_List -->
<g id="node3" class="node">
<title>_23_List</title>
<g id="a_node3"><a xlink:href="ShoppingList.dbquity#:~:text=entity%20List" xlink:title=":ShoppingList\Shopping&lt;TABLE&gt;ist&#10; &#45;&gt; ShoppingList.dbquity#:~:text=entity%20List" target="_parent">
<polygon fill="none" stroke="black" points="114.12,-227 23.88,-227 23.88,-153 114.12,-153 114.12,-227"/>
<polyline fill="none" stroke="black" points="31.88,-193 106.12,-193"/>
<text text-anchor="start" x="51.75" y="-210.5" font-family="Arial" font-size="10.00">«entity»</text>
<text text-anchor="start" x="61.12" y="-198.5" font-family="Arial" font-size="10.00">List</text>
<polyline fill="none" stroke="black" points="106.12,-193 31.88,-193"/>
<text text-anchor="start" x="34.88" y="-180.5" font-family="Arial" font-size="10.00">collection: Lists</text>
<polyline fill="none" stroke="black" points="106.12,-175 31.88,-175"/>
<text text-anchor="start" x="34.88" y="-162.5" font-family="Arial" font-size="10.00">link Shop</text>
</a>
</g>
</g>
<!-- _23_List&#45;&#45;_23_Shop -->
<g id="edge1" class="edge">
<title>_23_List&#45;&#45;_23_Shop</title>
<path fill="none" stroke="black" d="M70.2,-152.7C70.53,-142.78 70.89,-131.82 71.24,-121.17"/>
<polygon fill="black" stroke="black" points="71.56,-111.45 75.73,-121.6 71.44,-115.23 71.23,-121.45 71.23,-121.45 71.23,-121.45 71.44,-115.23 66.74,-121.3 71.56,-111.45"/>
</g>
<!-- _23_List&#45;&#45;_23_Item -->
<g id="edge2" class="edge">
<title>_23_List&#45;&#45;_23_Item</title>
<g id="a_edge2"><a xlink:href="ShoppingList.dbquity#:~:text=association%20ToBuy" xlink:title=":ShoppingList\Shopping_23_ListoBuy&#10; &#45;&gt; ShoppingList.dbquity#:~:text=association%20ToBuy" target="_parent">
<path fill="none" stroke="black" d="M127.48,-190C150.15,-190 175.76,-190 197.18,-190"/>
<polygon fill="none" stroke="black" points="127.42,-190 121.42,-194 115.42,-190 121.42,-186 127.42,-190"/>
</a>
</g>
<g id="a_edge2&#45;label"><a xlink:href="ShoppingList.dbquity#:~:text=association%20ToBuy" xlink:title="&lt;TABLE&gt;" target="_parent">
<polyline fill="none" stroke="black" points="122.75,-223 188.75,-223"/>
<text text-anchor="start" x="125.75" y="-240.5" font-family="Arial" font-size="10.00">«association»</text>
<text text-anchor="start" x="141.88" y="-228.5" font-family="Arial" font-size="10.00">ToBuy</text>
<polyline fill="none" stroke="black" points="188.75,-223 122.75,-223"/>
<text text-anchor="start" x="125.75" y="-210.5" font-family="Arial" font-size="10.00">◇end List</text>
<text text-anchor="start" x="125.75" y="-198.5" font-family="Arial" font-size="10.00">end Item</text>
</a>
</g>
<g id="a_edge2&#45;headlabel"><a xlink:href="ShoppingList.dbquity#:~:text=association%20ToBuy" xlink:title="1..*" target="_parent">
<text text-anchor="start" x="182.18" y="-180.5" font-family="Arial" font-size="10.00">1..*</text>
</a>
</g>
<g id="a_edge2&#45;taillabel"><a xlink:href="ShoppingList.dbquity#:~:text=association%20ToBuy" xlink:title="*" target="_parent">
<text text-anchor="start" x="114.52" y="-192.5" font-family="Arial" font-size="10.00">*</text>
</a>
</g>
</g>
</g>
</svg>
