<?xml version="1.0" encoding="UTF-8" standalone="no"?>
<!DOCTYPE svg PUBLIC "-//W3C//DTD SVG 1.1//EN"
 "http://www.w3.org/Graphics/SVG/1.1/DTD/svg11.dtd">
<!-- Generated by graphviz version 9.0.0 (20230911.1827)
 -->
<!-- Pages: 1 -->
<svg width="499pt" height="333pt"
 viewBox="0.00 0.00 498.50 333.00" xmlns="http://www.w3.org/2000/svg" xmlns:xlink="http://www.w3.org/1999/xlink">
<g id="graph0" class="graph" transform="scale(1 1) rotate(0) translate(4 329)">
<polygon fill="white" stroke="none" points="-4,4 -4,-329 494.5,-329 494.5,4 -4,4"/>
<text text-anchor="start" x="12" y="-10.5" font-family="Arial" font-size="10.00">Dbquity CLI v0.10.8616</text>
<text text-anchor="start" x="117.75" y="-10.5" font-family="Arial" font-size="10.00"> &#160;&#160;&#160;dot ShoppingList * &#45;filter::ShoppingList\ +m +x &#45;r &#160;&#160;&#160;</text>
<text text-anchor="start" x="357" y="-10.5" font-family="Arial" font-size="10.00">2024&#45;09&#45;15 14:36:38 +02:00</text>
<g id="clust1" class="cluster">
<title>cluster_20_ShoppingList</title>
<g id="a_clust1"><a xlink:href="ShoppingList.dbquity" xlink:title=":ShoppingList&#10; &#45;&gt; ShoppingList.dbquity" target="_parent">
<polygon fill="none" stroke="black" points="95.75,-36 95.75,-317 394.75,-317 394.75,-36 95.75,-36"/>
<text text-anchor="middle" x="245.25" y="-303.5" font-family="Arial" font-size="10.00">site ShoppingList</text>
</a>
</g>
</g>
<g id="clust2" class="cluster">
<title>cluster_23_Shopping</title>
<g id="a_clust2"><a xlink:href="ShoppingList.dbquity#:~:text=area%20Shopping" xlink:title=":ShoppingList\Shopping&#10; &#45;&gt; ShoppingList.dbquity#:~:text=area%20Shopping" target="_parent">
<polygon fill="none" stroke="black" points="103.75,-44 103.75,-289 386.75,-289 386.75,-44 103.75,-44"/>
<text text-anchor="start" x="111.75" y="-276.5" font-family="Arial" font-size="10.00">area </text>
<text text-anchor="start" x="133.5" y="-276.5" font-family="Arial" font-weight="bold" font-size="10.00">Shopping</text>
</a>
</g>
</g>
<!-- _23_Shop -->
<g id="node1" class="node">
<title>_23_Shop</title>
<g id="a_node1"><a xlink:href="ShoppingList.dbquity#:~:text=entity%20Shop" xlink:title=":ShoppingList\Shopping\Shop&#10; &#45;&gt; ShoppingList.dbquity#:~:text=entity%20Shop" target="_parent">
<polygon fill="none" stroke="black" points="209.25,-138 112.25,-138 112.25,-52 209.25,-52 209.25,-138"/>
<polyline fill="none" stroke="black" points="120.25,-104 201.25,-104"/>
<text text-anchor="start" x="143.5" y="-121.5" font-family="Arial" font-size="10.00">«entity»</text>
<text text-anchor="start" x="149.5" y="-109.5" font-family="Arial" font-size="10.00">Shop</text>
<polyline fill="none" stroke="black" points="201.25,-104 120.25,-104"/>
<text text-anchor="start" x="123.25" y="-91.5" font-family="Arial" font-size="10.00">collection: Shops</text>
<text text-anchor="start" x="123.25" y="-79.5" font-family="Arial" font-size="10.00">identity: Name</text>
<polyline fill="none" stroke="black" points="201.25,-74 120.25,-74"/>
<text text-anchor="start" x="123.25" y="-61.5" font-family="Arial" font-size="10.00">=text Name</text>
</a>
</g>
</g>
<!-- _23_Item -->
<g id="node2" class="node">
<title>_23_Item</title>
<g id="a_node2"><a xlink:href="ShoppingList.dbquity#:~:text=entity%20Item" xlink:title=":ShoppingList\Shopping\Item&#10; &#45;&gt; ShoppingList.dbquity#:~:text=entity%20Item" target="_parent">
<polygon fill="none" stroke="black" points="378.38,-261 285.12,-261 285.12,-175 378.38,-175 378.38,-261"/>
<polyline fill="none" stroke="black" points="293.12,-227 370.38,-227"/>
<text text-anchor="start" x="314.5" y="-244.5" font-family="Arial" font-size="10.00">«entity»</text>
<text text-anchor="start" x="322.38" y="-232.5" font-family="Arial" font-size="10.00">Item</text>
<polyline fill="none" stroke="black" points="370.38,-227 293.12,-227"/>
<text text-anchor="start" x="296.12" y="-214.5" font-family="Arial" font-size="10.00">collection: Items</text>
<text text-anchor="start" x="296.12" y="-202.5" font-family="Arial" font-size="10.00">identity: Name</text>
<polyline fill="none" stroke="black" points="370.38,-197 293.12,-197"/>
<text text-anchor="start" x="296.12" y="-184.5" font-family="Arial" font-size="10.00">=text Name</text>
</a>
</g>
</g>
<!-- _23_List -->
<g id="node3" class="node">
<title>_23_List</title>
<g id="a_node3"><a xlink:href="ShoppingList.dbquity#:~:text=entity%20List" xlink:title=":ShoppingList\Shopping&lt;TABLE&gt;ist&#10; &#45;&gt; ShoppingList.dbquity#:~:text=entity%20List" target="_parent">
<polygon fill="none" stroke="black" points="201.88,-255 111.62,-255 111.62,-181 201.88,-181 201.88,-255"/>
<polyline fill="none" stroke="black" points="119.62,-221 193.88,-221"/>
<text text-anchor="start" x="139.5" y="-238.5" font-family="Arial" font-size="10.00">«entity»</text>
<text text-anchor="start" x="148.88" y="-226.5" font-family="Arial" font-size="10.00">List</text>
<polyline fill="none" stroke="black" points="193.88,-221 119.62,-221"/>
<text text-anchor="start" x="122.62" y="-208.5" font-family="Arial" font-size="10.00">collection: Lists</text>
<polyline fill="none" stroke="black" points="193.88,-203 119.62,-203"/>
<text text-anchor="start" x="122.62" y="-190.5" font-family="Arial" font-size="10.00">link Shop</text>
</a>
</g>
</g>
<!-- _23_List&#45;&#45;_23_Shop -->
<g id="edge1" class="edge">
<title>_23_List&#45;&#45;_23_Shop</title>
<path fill="none" stroke="black" d="M157.95,-180.7C158.28,-170.78 158.64,-159.82 158.99,-149.17"/>
<polygon fill="black" stroke="black" points="159.31,-139.45 163.48,-149.6 159.19,-143.23 158.98,-149.45 158.98,-149.45 158.98,-149.45 159.19,-143.23 154.49,-149.3 159.31,-139.45"/>
</g>
<!-- _23_List&#45;&#45;_23_Item -->
<g id="edge2" class="edge">
<title>_23_List&#45;&#45;_23_Item</title>
<g id="a_edge2"><a xlink:href="ShoppingList.dbquity#:~:text=association%20ToBuy" xlink:title=":ShoppingList\Shopping_23_ListoBuy&#10; &#45;&gt; ShoppingList.dbquity#:~:text=association%20ToBuy" target="_parent">
<path fill="none" stroke="black" d="M215.23,-218C237.9,-218 263.51,-218 284.93,-218"/>
<polygon fill="none" stroke="black" points="215.17,-218 209.17,-222 203.17,-218 209.17,-214 215.17,-218"/>
</a>
</g>
<g id="a_edge2&#45;label"><a xlink:href="ShoppingList.dbquity#:~:text=association%20ToBuy" xlink:title="&lt;TABLE&gt;" target="_parent">
<polyline fill="none" stroke="black" points="210.5,-251 276.5,-251"/>
<text text-anchor="start" x="213.5" y="-268.5" font-family="Arial" font-size="10.00">«association»</text>
<text text-anchor="start" x="229.62" y="-256.5" font-family="Arial" font-size="10.00">ToBuy</text>
<polyline fill="none" stroke="black" points="276.5,-251 210.5,-251"/>
<text text-anchor="start" x="213.5" y="-238.5" font-family="Arial" font-size="10.00">◇end List</text>
<text text-anchor="start" x="213.5" y="-226.5" font-family="Arial" font-size="10.00">end Item</text>
</a>
</g>
<g id="a_edge2&#45;headlabel"><a xlink:href="ShoppingList.dbquity#:~:text=association%20ToBuy" xlink:title="1..*" target="_parent">
<text text-anchor="start" x="269.93" y="-208.5" font-family="Arial" font-size="10.00">1..*</text>
</a>
</g>
<g id="a_edge2&#45;taillabel"><a xlink:href="ShoppingList.dbquity#:~:text=association%20ToBuy" xlink:title="*" target="_parent">
<text text-anchor="start" x="202.27" y="-220.5" font-family="Arial" font-size="10.00">*</text>
</a>
</g>
</g>
</g>
</svg>
