<?xml version="1.0" encoding="UTF-8" standalone="no"?>
<!DOCTYPE svg PUBLIC "-//W3C//DTD SVG 1.1//EN"
 "http://www.w3.org/Graphics/SVG/1.1/DTD/svg11.dtd">
<!-- Generated by graphviz version 9.0.0 (20230911.1827)
 -->
<!-- Pages: 1 -->
<svg width="466pt" height="256pt"
 viewBox="0.00 0.00 466.25 256.00" xmlns="http://www.w3.org/2000/svg" xmlns:xlink="http://www.w3.org/1999/xlink">
<g id="graph0" class="graph" transform="scale(1 1) rotate(0) translate(4 252)">
<polygon fill="white" stroke="none" points="-4,4 -4,-252 462.25,-252 462.25,4 -4,4"/>
<text text-anchor="start" x="12" y="-10.5" font-family="Arial" font-size="10.00">Dbquity CLI v0.10.8172</text>
<text text-anchor="start" x="117.75" y="-10.5" font-family="Arial" font-size="10.00"> &#160;&#160;&#160;dot HelloWorld * &#45;filter::HelloWorld\ +m &#45;r &#160;&#160;&#160;</text>
<text text-anchor="start" x="324.75" y="-10.5" font-family="Arial" font-size="10.00">2024&#45;04&#45;17 10:27:32 +02:00</text>
<g id="clust1" class="cluster">
<title>cluster_20_HelloWorld</title>
<g id="a_clust1"><a xlink:href="HelloWorld.dbquity" xlink:title="model.dbquity.com/examples:HelloWorld&#10; &#45;&gt; HelloWorld.dbquity" target="_parent">
<polygon fill="none" stroke="black" points="10.62,-36 10.62,-240 447.62,-240 447.62,-36 10.62,-36"/>
<text text-anchor="middle" x="229.12" y="-226.5" font-family="Arial" font-size="10.00">site model.dbquity.com/examples:HelloWorld v1.0.0</text>
</a>
</g>
</g>
<g id="clust2" class="cluster">
<title>cluster_30_Welcome</title>
<g id="a_clust2"><a xlink:href="HelloWorld.dbquity#:~:text=area%20Welcome" xlink:title="model.dbquity.com/examples:HelloWorld\Welcome&#10; &#45;&gt; HelloWorld.dbquity#:~:text=area%20Welcome" target="_parent">
<polygon fill="none" stroke="black" points="335.62,-88 335.62,-188 439.62,-188 439.62,-88 335.62,-88"/>
<text text-anchor="start" x="354.25" y="-175.5" font-family="Arial" font-size="10.00">area </text>
<text text-anchor="start" x="376" y="-175.5" font-family="Arial" font-weight="bold" font-size="10.00">Welcome</text>
</a>
</g>
</g>
<!-- _20_Period -->
<g id="node1" class="node">
<title>_20_Period</title>
<g id="a_node1"><a xlink:href="HelloWorld.dbquity#:~:text=class%20Period" xlink:title="model.dbquity.com/examples:HelloWorld\Period&#10; &#45;&gt; HelloWorld.dbquity#:~:text=class%20Period" target="_parent">
<path fill="none" stroke="black" d="M314.12,-212C314.12,-212 31.12,-212 31.12,-212 25.12,-212 19.12,-206 19.12,-200 19.12,-200 19.12,-56 19.12,-56 19.12,-50 25.12,-44 31.12,-44 31.12,-44 314.12,-44 314.12,-44 320.12,-44 326.12,-50 326.12,-56 326.12,-56 326.12,-200 326.12,-200 326.12,-206 320.12,-212 314.12,-212"/>
<polyline fill="none" stroke="black" points="27.12,-178 318.12,-178"/>
<text text-anchor="start" x="155.75" y="-195.5" font-family="Arial" font-size="10.00">«class»</text>
<text text-anchor="start" x="158.75" y="-183.5" font-family="Arial" font-size="10.00">Period</text>
<polyline fill="none" stroke="black" points="318.12,-178 27.12,-178"/>
<text text-anchor="start" x="30.12" y="-165.5" font-family="Arial" font-size="10.00" fill="gray">This Period class comprises the Start, Days and End fields to</text>
<text text-anchor="start" x="30.12" y="-153.5" font-family="Arial" font-size="10.00" fill="gray">capture an interval of a certain number of days starting and ending</text>
<text text-anchor="start" x="30.12" y="-141.5" font-family="Arial" font-size="10.00" fill="gray">at certain dates.</text>
<text text-anchor="start" x="30.12" y="-129.5" font-family="Arial" font-size="10.00" fill="gray">It uses the invariant property to declare the formula that ties</text>
<text text-anchor="start" x="30.12" y="-117.5" font-family="Arial" font-size="10.00" fill="gray">together these three fields.</text>
<polyline fill="none" stroke="black" points="318.12,-112 27.12,-112"/>
<text text-anchor="start" x="30.12" y="-99.5" font-family="Arial" font-size="10.00">↷{Start + Days = End and Start &lt;= End}</text>
<polyline fill="none" stroke="black" points="318.12,-94 27.12,-94"/>
<text text-anchor="start" x="30.12" y="-82.5" font-family="Arial" font-size="10.00">date Start</text>
<text text-anchor="start" x="30.12" y="-72.5" font-family="Arial" font-size="10.00">integer Days</text>
<text text-anchor="start" x="30.12" y="-62.5" font-family="Arial" font-size="10.00">\date End</text>
<text text-anchor="start" x="30.12" y="-52.5" font-family="Arial" font-size="10.00"> &#160;</text>
<text text-anchor="start" x="36.12" y="-52.5" font-family="Arial" font-style="italic" font-size="10.00">nil</text>
</a>
</g>
</g>
<!-- _20_Welcome -->
<g id="node2" class="node">
<title>_20_Welcome</title>
<g id="a_node2"><a xlink:href="HelloWorld.dbquity#:~:text=area%20Welcome" xlink:title="model.dbquity.com/examples:HelloWorld\Welcome&#10; &#45;&gt; HelloWorld.dbquity#:~:text=area%20Welcome" target="_parent">
<polygon fill="none" stroke="black" points="431.25,-160 344,-160 344,-96 431.25,-96 431.25,-160"/>
<polyline fill="none" stroke="black" points="352,-130 423.25,-130"/>
<text text-anchor="start" x="373" y="-144.5" font-family="Arial" font-size="10.00">«area»</text>
<text text-anchor="start" x="365.12" y="-134.5" font-family="Arial" font-weight="bold" font-size="10.00">Welcome</text>
<polyline fill="none" stroke="black" points="423.25,-130 352,-130"/>
<text text-anchor="start" x="355" y="-117.5" font-family="Arial" font-size="10.00">Period Meeting</text>
<text text-anchor="start" x="355" y="-105.5" font-family="Arial" font-size="10.00">text Greeting*</text>
</a>
</g>
</g>
</g>
</svg>
