<?xml version="1.0" encoding="UTF-8" standalone="no"?>
<!DOCTYPE svg PUBLIC "-//W3C//DTD SVG 1.1//EN"
 "http://www.w3.org/Graphics/SVG/1.1/DTD/svg11.dtd">
<!-- Generated by graphviz version 9.0.0 (20230911.1827)
 -->
<!-- Pages: 1 -->
<svg width="598pt" height="252pt"
 viewBox="0.00 0.00 597.50 252.00" xmlns="http://www.w3.org/2000/svg" xmlns:xlink="http://www.w3.org/1999/xlink">
<g id="graph0" class="graph" transform="scale(1 1) rotate(0) translate(4 248)">
<polygon fill="white" stroke="none" points="-4,4 -4,-248 593.5,-248 593.5,4 -4,4"/>
<text text-anchor="start" x="12" y="-10.5" font-family="Arial" font-size="10.00">Dbquity CLI v0.10.8190&#45;debug(2024&#45;04&#45;23T22:33:55Z)</text>
<text text-anchor="start" x="249" y="-10.5" font-family="Arial" font-size="10.00"> &#160;&#160;&#160;dot HelloWorld * &#45;filter::HelloWorld\ +m &#45;r &#160;&#160;&#160;</text>
<text text-anchor="start" x="456" y="-10.5" font-family="Arial" font-size="10.00">2024&#45;04&#45;24 12:11:37 +02:00</text>
<g id="clust1" class="cluster">
<title>cluster_20_HelloWorld</title>
<g id="a_clust1"><a xlink:href="HelloWorld.dbquity" xlink:title="model.dbquity.com/examples:HelloWorld&#10; &#45;&gt; HelloWorld.dbquity" target="_parent">
<polygon fill="none" stroke="black" points="76.25,-36 76.25,-236 513.25,-236 513.25,-36 76.25,-36"/>
<text text-anchor="middle" x="294.75" y="-222.5" font-family="Arial" font-size="10.00">site model.dbquity.com/examples:HelloWorld v1.0.0</text>
</a>
</g>
</g>
<g id="clust2" class="cluster">
<title>cluster_30_Welcome</title>
<g id="a_clust2"><a xlink:href="HelloWorld.dbquity#:~:text=area%20Welcome" xlink:title="model.dbquity.com/examples:HelloWorld\Welcome&#10; &#45;&gt; HelloWorld.dbquity#:~:text=area%20Welcome" target="_parent">
<polygon fill="none" stroke="black" points="401.25,-86 401.25,-186 505.25,-186 505.25,-86 401.25,-86"/>
<text text-anchor="start" x="419.88" y="-173.5" font-family="Arial" font-size="10.00">area </text>
<text text-anchor="start" x="441.62" y="-173.5" font-family="Arial" font-weight="bold" font-size="10.00">Welcome</text>
</a>
</g>
</g>
<!-- _20_Period -->
<g id="node1" class="node">
<title>_20_Period</title>
<g id="a_node1"><a xlink:href="HelloWorld.dbquity#:~:text=class%20Period" xlink:title="model.dbquity.com/examples:HelloWorld\Period&#10; &#45;&gt; HelloWorld.dbquity#:~:text=class%20Period" target="_parent">
<path fill="none" stroke="black" d="M379.75,-208C379.75,-208 96.75,-208 96.75,-208 90.75,-208 84.75,-202 84.75,-196 84.75,-196 84.75,-56 84.75,-56 84.75,-50 90.75,-44 96.75,-44 96.75,-44 379.75,-44 379.75,-44 385.75,-44 391.75,-50 391.75,-56 391.75,-56 391.75,-196 391.75,-196 391.75,-202 385.75,-208 379.75,-208"/>
<polyline fill="none" stroke="black" points="92.75,-174 383.75,-174"/>
<text text-anchor="start" x="221.38" y="-191.5" font-family="Arial" font-size="10.00">«class»</text>
<text text-anchor="start" x="224.38" y="-179.5" font-family="Arial" font-size="10.00">Period</text>
<polyline fill="none" stroke="black" points="383.75,-174 92.75,-174"/>
<text text-anchor="start" x="95.75" y="-161.5" font-family="Arial" font-size="10.00" fill="gray">This Period class comprises the Start, Days and End fields to</text>
<text text-anchor="start" x="95.75" y="-149.5" font-family="Arial" font-size="10.00" fill="gray">capture an interval of a certain number of days starting and ending</text>
<text text-anchor="start" x="95.75" y="-137.5" font-family="Arial" font-size="10.00" fill="gray">at certain dates.</text>
<text text-anchor="start" x="95.75" y="-125.5" font-family="Arial" font-size="10.00" fill="gray">It uses the invariant property to declare the formula that ties</text>
<text text-anchor="start" x="95.75" y="-113.5" font-family="Arial" font-size="10.00" fill="gray">together these three fields.</text>
<polyline fill="none" stroke="black" points="383.75,-108 92.75,-108"/>
<text text-anchor="start" x="95.75" y="-95.5" font-family="Arial" font-size="10.00">↷{Start + Days = End and Start &lt;= End}</text>
<polyline fill="none" stroke="black" points="383.75,-90 92.75,-90"/>
<text text-anchor="start" x="95.75" y="-77.5" font-family="Arial" font-size="10.00">date Start</text>
<text text-anchor="start" x="95.75" y="-65.5" font-family="Arial" font-size="10.00">integer Days</text>
<text text-anchor="start" x="95.75" y="-53.5" font-family="Arial" font-size="10.00">date End</text>
</a>
</g>
</g>
<!-- _20_Welcome -->
<g id="node2" class="node">
<title>_20_Welcome</title>
<g id="a_node2"><a xlink:href="HelloWorld.dbquity#:~:text=area%20Welcome" xlink:title="model.dbquity.com/examples:HelloWorld\Welcome&#10; &#45;&gt; HelloWorld.dbquity#:~:text=area%20Welcome" target="_parent">
<polygon fill="none" stroke="black" points="496.88,-158 409.62,-158 409.62,-94 496.88,-94 496.88,-158"/>
<polyline fill="none" stroke="black" points="417.62,-128 488.88,-128"/>
<text text-anchor="start" x="438.62" y="-142.5" font-family="Arial" font-size="10.00">«area»</text>
<text text-anchor="start" x="430.75" y="-132.5" font-family="Arial" font-weight="bold" font-size="10.00">Welcome</text>
<polyline fill="none" stroke="black" points="488.88,-128 417.62,-128"/>
<text text-anchor="start" x="420.62" y="-115.5" font-family="Arial" font-size="10.00">Period Meeting</text>
<text text-anchor="start" x="420.62" y="-103.5" font-family="Arial" font-size="10.00">text Greeting*</text>
</a>
</g>
</g>
</g>
</svg>
