<?xml version="1.0" encoding="UTF-8" standalone="no"?>
<!DOCTYPE svg PUBLIC "-//W3C//DTD SVG 1.1//EN"
 "http://www.w3.org/Graphics/SVG/1.1/DTD/svg11.dtd">
<!-- Generated by graphviz version 9.0.0 (20230911.1827)
 -->
<!-- Pages: 1 -->
<svg width="690pt" height="488pt"
 viewBox="0.00 0.00 690.00 488.00" xmlns="http://www.w3.org/2000/svg" xmlns:xlink="http://www.w3.org/1999/xlink">
<g id="graph0" class="graph" transform="scale(1 1) rotate(0) translate(4 484)">
<polygon fill="white" stroke="none" points="-4,4 -4,-484 686,-484 686,4 -4,4"/>
<g id="clust1" class="cluster">
<title>cluster_20_RollDice</title>
<g id="a_clust1"><a xlink:href="RollDice.dbquity" xlink:title="model.dbquity.com/examples/behaviour:RollDice&#10; &#45;&gt; RollDice.dbquity" target="_parent">
<polygon fill="none" stroke="black" points="8,-8 8,-472 674,-472 674,-8 8,-8"/>
<text text-anchor="middle" x="341" y="-458.5" font-family="Arial" font-size="10.00">site model.dbquity.com/examples/behaviour:RollDice v0.10.0</text>
</a>
</g>
</g>
<g id="clust2" class="cluster">
<title>cluster_23_Table</title>
<g id="a_clust2"><a xlink:href="RollDice.dbquity#:~:text=area%20Table" xlink:title="model.dbquity.com/examples/behaviour:RollDice\Table&#10; &#45;&gt; RollDice.dbquity#:~:text=area%20Table" target="_parent">
<polygon fill="none" stroke="black" points="16,-16 16,-444 666,-444 666,-16 16,-16"/>
<text text-anchor="start" x="316.62" y="-431.5" font-family="Arial" font-size="10.00">area </text>
<text text-anchor="start" x="338.38" y="-431.5" font-family="Arial" font-weight="bold" font-size="10.00">Table</text>
</a>
</g>
</g>
<g id="clust3" class="cluster">
<title>cluster_34_Game</title>
<g id="a_clust3"><a xlink:href="RollDice.dbquity#:~:text=entity%20Game" xlink:title="model.dbquity.com/examples/behaviour:RollDice\Tablecluster_34_Gameame&#10; &#45;&gt; RollDice.dbquity#:~:text=entity%20Game" target="_parent">
<polygon fill="none" stroke="black" stroke-dasharray="1,5" points="382,-24 382,-416 658,-416 658,-24 382,-24"/>
</a>
</g>
</g>
<!-- _20_Table -->
<g id="node1" class="node">
<title>_20_Table</title>
<g id="a_node1"><a xlink:href="RollDice.dbquity#:~:text=area%20Table" xlink:title="model.dbquity.com/examples/behaviour:RollDice\Table&#10; &#45;&gt; RollDice.dbquity#:~:text=area%20Table" target="_parent">
<polygon fill="none" stroke="black" points="374.48,-378 23.52,-378 23.52,-250 374.48,-250 374.48,-378"/>
<polyline fill="none" stroke="black" points="31.52,-348 366.48,-348"/>
<text text-anchor="start" x="184.38" y="-362.5" font-family="Arial" font-size="10.00">«area»</text>
<text text-anchor="start" x="185.5" y="-352.5" font-family="Arial" font-weight="bold" font-size="10.00">Table</text>
<polyline fill="none" stroke="black" points="366.48,-348 31.52,-348"/>
<text text-anchor="start" x="34.52" y="-336.5" font-family="Arial" font-size="10.00">|integer Players</text>
<text text-anchor="start" x="34.52" y="-326.5" font-family="Arial" font-size="10.00"> &#160;</text>
<text text-anchor="start" x="40.52" y="-326.5" font-family="Arial" font-style="italic" font-size="10.00">3</text>
<text text-anchor="start" x="34.52" y="-316.5" font-family="Arial" font-size="10.00">|integer Target</text>
<text text-anchor="start" x="34.52" y="-306.5" font-family="Arial" font-size="10.00"> &#160;</text>
<text text-anchor="start" x="40.52" y="-306.5" font-family="Arial" font-style="italic" font-size="10.00">13</text>
<polyline fill="none" stroke="black" points="366.48,-302 31.52,-302"/>
<text text-anchor="start" x="34.52" y="-289.5" font-family="Arial" font-size="10.00">while true do (NewGame())</text>
<polyline fill="none" stroke="black" points="366.48,-284 31.52,-284"/>
<text text-anchor="start" x="34.52" y="-271.5" font-family="Arial" font-size="10.00">[Players &gt; 1 and Players &lt; 10 and Target &gt; 6 and Target &lt; 36]NewGame✓</text>
<text text-anchor="start" x="34.52" y="-259.5" font-family="Arial" font-size="10.00"> &#160;add(Game, Players: Players, Target: Target)</text>
</a>
</g>
</g>
<!-- _23_Game -->
<g id="node2" class="node">
<title>_23_Game</title>
<g id="a_node2"><a xlink:href="RollDice.dbquity#:~:text=entity%20Game" xlink:title="model.dbquity.com/examples/behaviour:RollDice\Table%3ame&#10; &#45;&gt; RollDice.dbquity#:~:text=entity%20Game" target="_parent">
<polygon fill="none" stroke="black" points="646.5,-408 393.5,-408 393.5,-220 646.5,-220 646.5,-408"/>
<polyline fill="none" stroke="black" points="401.5,-374 638.5,-374"/>
<text text-anchor="start" x="502.75" y="-391.5" font-family="Arial" font-size="10.00">«entity»</text>
<text text-anchor="start" x="505.38" y="-379.5" font-family="Arial" font-size="10.00">/Game</text>
<polyline fill="none" stroke="black" points="638.5,-374 401.5,-374"/>
<text text-anchor="start" x="404.5" y="-361.5" font-family="Arial" font-size="10.00">collection: Games</text>
<text text-anchor="start" x="404.5" y="-349.5" font-family="Arial" font-size="10.00">readonly: true</text>
<polyline fill="none" stroke="black" points="638.5,-344 401.5,-344"/>
<text text-anchor="start" x="404.5" y="-331.5" font-family="Arial" font-size="10.00">integer Players</text>
<text text-anchor="start" x="404.5" y="-319.5" font-family="Arial" font-size="10.00">integer Target</text>
<polyline fill="none" stroke="black" points="638.5,-314 401.5,-314"/>
<text text-anchor="start" x="404.5" y="-301.5" font-family="Arial" font-size="10.00">IsDone()</text>
<text text-anchor="start" x="404.5" y="-289.5" font-family="Arial" font-size="10.00"> &#160;Scores.any(Amount = Target)</text>
<polyline fill="none" stroke="black" points="638.5,-284 401.5,-284"/>
<text text-anchor="start" x="404.5" y="-271.5" font-family="Arial" font-size="10.00">while not IsDone() do</text>
<text text-anchor="start" x="404.5" y="-259.5" font-family="Arial" font-size="10.00"> &#160;&#160;&#160;with player in 1..Players || Toss(player)</text>
<polyline fill="none" stroke="black" points="638.5,-254 401.5,-254"/>
<text text-anchor="start" x="404.5" y="-241.5" font-family="Arial" font-size="10.00">Toss✓</text>
<text text-anchor="start" x="404.5" y="-229.5" font-family="Arial" font-size="10.00"> &#160;getoradd(Score: Player).set(Amount: NextAmount())</text>
</a>
</g>
</g>
<!-- _34_Score -->
<g id="node3" class="node">
<title>_34_Score</title>
<g id="a_node3"><a xlink:href="RollDice.dbquity#:~:text=entity%20Score" xlink:title="model.dbquity.com/examples/behaviour:RollDice\Table%3ame\Score&#10; &#45;&gt; RollDice.dbquity#:~:text=entity%20Score" target="_parent">
<polygon fill="none" stroke="black" points="649.88,-172 390.12,-172 390.12,-32 649.88,-32 649.88,-172"/>
<polyline fill="none" stroke="black" points="398.12,-138 641.88,-138"/>
<text text-anchor="start" x="502.75" y="-155.5" font-family="Arial" font-size="10.00">«entity»</text>
<text text-anchor="start" x="507.25" y="-143.5" font-family="Arial" font-size="10.00">Score</text>
<polyline fill="none" stroke="black" points="641.88,-138 398.12,-138"/>
<text text-anchor="start" x="401.12" y="-125.5" font-family="Arial" font-size="10.00">collection: Scores</text>
<text text-anchor="start" x="401.12" y="-113.5" font-family="Arial" font-size="10.00">identity: Player</text>
<polyline fill="none" stroke="black" points="641.88,-108 398.12,-108"/>
<text text-anchor="start" x="401.12" y="-95.5" font-family="Arial" font-size="10.00">=integer Player</text>
<text text-anchor="start" x="401.12" y="-83.5" font-family="Arial" font-size="10.00">integer Amount</text>
<polyline fill="none" stroke="black" points="641.88,-78 398.12,-78"/>
<text text-anchor="start" x="401.12" y="-65.5" font-family="Arial" font-size="10.00">NextAmount()</text>
<text text-anchor="start" x="401.12" y="-53.5" font-family="Arial" font-size="10.00"> &#160;if Amount &lt; Game.Target then Amount + random(1,6)</text>
<text text-anchor="start" x="401.12" y="-41.5" font-family="Arial" font-size="10.00"> &#160;&#160;&#160;&#160;&#160;&#160;&#160;&#160;&#160;&#160;&#160;&#160;&#160;&#160;&#160;&#160;&#160;&#160;&#160;&#160;&#160;&#160;&#160;&#160;&#160;else Amount &#45; random(1,6)</text>
</a>
</g>
</g>
<!-- _23_Game&#45;&#45;_34_Score -->
<g id="edge1" class="edge">
<title>_23_Game&#45;&#45;_34_Score</title>
<path fill="none" stroke="black" d="M520,-206.96C520,-195.23 520,-183.52 520,-172.41"/>
<polygon fill="black" stroke="black" points="520,-206.77 524,-212.77 520,-218.77 516,-212.77 520,-206.77"/>
<text text-anchor="start" x="520" y="-192.5" font-family="Arial" font-size="10.00">Scores</text>
<text text-anchor="middle" x="518.12" y="-174.91" font-family="Arial" font-size="10.00">*</text>
</g>
</g>
</svg>
