<?xml version="1.0" encoding="UTF-8" standalone="no"?>
<!DOCTYPE svg PUBLIC "-//W3C//DTD SVG 1.1//EN"
 "http://www.w3.org/Graphics/SVG/1.1/DTD/svg11.dtd">
<!-- Generated by graphviz version 9.0.0 (20230911.1827)
 -->
<!-- Pages: 1 -->
<svg width="690pt" height="516pt"
 viewBox="0.00 0.00 690.00 516.00" xmlns="http://www.w3.org/2000/svg" xmlns:xlink="http://www.w3.org/1999/xlink">
<g id="graph0" class="graph" transform="scale(1 1) rotate(0) translate(4 512)">
<polygon fill="white" stroke="none" points="-4,4 -4,-512 686,-512 686,4 -4,4"/>
<text text-anchor="start" x="128" y="-10.5" font-family="Arial" font-size="10.00">Dbquity CLI v0.10.8616</text>
<text text-anchor="start" x="233.75" y="-10.5" font-family="Arial" font-size="10.00"> &#160;&#160;&#160;dot RollDice * &#45;filter::RollDice\ +m +x &#45;r &#160;&#160;&#160;</text>
<text text-anchor="start" x="432.5" y="-10.5" font-family="Arial" font-size="10.00">2024&#45;09&#45;15 14:35:22 +02:00</text>
<g id="clust1" class="cluster">
<title>cluster_20_RollDice</title>
<g id="a_clust1"><a xlink:href="RollDice.dbquity" xlink:title=":RollDice&#10; &#45;&gt; RollDice.dbquity" target="_parent">
<polygon fill="none" stroke="black" points="8,-36 8,-500 674,-500 674,-36 8,-36"/>
<text text-anchor="middle" x="341" y="-486.5" font-family="Arial" font-size="10.00">site RollDice</text>
</a>
</g>
</g>
<g id="clust2" class="cluster">
<title>cluster_23_Table</title>
<g id="a_clust2"><a xlink:href="RollDice.dbquity#:~:text=area%20Table" xlink:title=":RollDice\Table&#10; &#45;&gt; RollDice.dbquity#:~:text=area%20Table" target="_parent">
<polygon fill="none" stroke="black" points="16,-44 16,-472 666,-472 666,-44 16,-44"/>
<text text-anchor="start" x="316.62" y="-459.5" font-family="Arial" font-size="10.00">area </text>
<text text-anchor="start" x="338.38" y="-459.5" font-family="Arial" font-weight="bold" font-size="10.00">Table</text>
</a>
</g>
</g>
<g id="clust3" class="cluster">
<title>cluster_34_Game</title>
<g id="a_clust3"><a xlink:href="RollDice.dbquity#:~:text=entity%20Game" xlink:title=":RollDice\Tablecluster_34_Gameame&#10; &#45;&gt; RollDice.dbquity#:~:text=entity%20Game" target="_parent">
<polygon fill="none" stroke="black" stroke-dasharray="1,5" points="382,-52 382,-444 658,-444 658,-52 382,-52"/>
</a>
</g>
</g>
<!-- _20_Table -->
<g id="node1" class="node">
<title>_20_Table</title>
<g id="a_node1"><a xlink:href="RollDice.dbquity#:~:text=area%20Table" xlink:title=":RollDice\Table&#10; &#45;&gt; RollDice.dbquity#:~:text=area%20Table" target="_parent">
<polygon fill="none" stroke="black" points="374.48,-406 23.52,-406 23.52,-278 374.48,-278 374.48,-406"/>
<polyline fill="none" stroke="black" points="31.52,-376 366.48,-376"/>
<text text-anchor="start" x="184.38" y="-390.5" font-family="Arial" font-size="10.00">«area»</text>
<text text-anchor="start" x="185.5" y="-380.5" font-family="Arial" font-weight="bold" font-size="10.00">Table</text>
<polyline fill="none" stroke="black" points="366.48,-376 31.52,-376"/>
<text text-anchor="start" x="34.52" y="-364.5" font-family="Arial" font-size="10.00">|integer Players</text>
<text text-anchor="start" x="34.52" y="-354.5" font-family="Arial" font-size="10.00"> &#160;</text>
<text text-anchor="start" x="40.52" y="-354.5" font-family="Arial" font-style="italic" font-size="10.00">3</text>
<text text-anchor="start" x="34.52" y="-344.5" font-family="Arial" font-size="10.00">|integer Target</text>
<text text-anchor="start" x="34.52" y="-334.5" font-family="Arial" font-size="10.00"> &#160;</text>
<text text-anchor="start" x="40.52" y="-334.5" font-family="Arial" font-style="italic" font-size="10.00">13</text>
<polyline fill="none" stroke="black" points="366.48,-330 31.52,-330"/>
<text text-anchor="start" x="34.52" y="-317.5" font-family="Arial" font-size="10.00">while true do (NewGame())</text>
<polyline fill="none" stroke="black" points="366.48,-312 31.52,-312"/>
<text text-anchor="start" x="34.52" y="-299.5" font-family="Arial" font-size="10.00">[Players &gt; 1 and Players &lt; 10 and Target &gt; 6 and Target &lt; 36]NewGame✓</text>
<text text-anchor="start" x="34.52" y="-287.5" font-family="Arial" font-size="10.00"> &#160;add(Game, Players: Players, Target: Target)</text>
</a>
</g>
</g>
<!-- _23_Game -->
<g id="node2" class="node">
<title>_23_Game</title>
<g id="a_node2"><a xlink:href="RollDice.dbquity#:~:text=entity%20Game" xlink:title=":RollDice\Table%3ame&#10; &#45;&gt; RollDice.dbquity#:~:text=entity%20Game" target="_parent">
<polygon fill="none" stroke="black" points="646.5,-436 393.5,-436 393.5,-248 646.5,-248 646.5,-436"/>
<polyline fill="none" stroke="black" points="401.5,-402 638.5,-402"/>
<text text-anchor="start" x="502.75" y="-419.5" font-family="Arial" font-size="10.00">«entity»</text>
<text text-anchor="start" x="505.38" y="-407.5" font-family="Arial" font-size="10.00">/Game</text>
<polyline fill="none" stroke="black" points="638.5,-402 401.5,-402"/>
<text text-anchor="start" x="404.5" y="-389.5" font-family="Arial" font-size="10.00">collection: Games</text>
<text text-anchor="start" x="404.5" y="-377.5" font-family="Arial" font-size="10.00">readonly: true</text>
<polyline fill="none" stroke="black" points="638.5,-372 401.5,-372"/>
<text text-anchor="start" x="404.5" y="-359.5" font-family="Arial" font-size="10.00">integer Players</text>
<text text-anchor="start" x="404.5" y="-347.5" font-family="Arial" font-size="10.00">integer Target</text>
<polyline fill="none" stroke="black" points="638.5,-342 401.5,-342"/>
<text text-anchor="start" x="404.5" y="-329.5" font-family="Arial" font-size="10.00">IsDone()</text>
<text text-anchor="start" x="404.5" y="-317.5" font-family="Arial" font-size="10.00"> &#160;Scores.any(Amount = Target)</text>
<polyline fill="none" stroke="black" points="638.5,-312 401.5,-312"/>
<text text-anchor="start" x="404.5" y="-299.5" font-family="Arial" font-size="10.00">while not IsDone() do</text>
<text text-anchor="start" x="404.5" y="-287.5" font-family="Arial" font-size="10.00"> &#160;&#160;&#160;with player in 1..Players || Toss(player)</text>
<polyline fill="none" stroke="black" points="638.5,-282 401.5,-282"/>
<text text-anchor="start" x="404.5" y="-269.5" font-family="Arial" font-size="10.00">Toss✓</text>
<text text-anchor="start" x="404.5" y="-257.5" font-family="Arial" font-size="10.00"> &#160;getoradd(Score: Player).set(Amount: NextAmount())</text>
</a>
</g>
</g>
<!-- _34_Score -->
<g id="node3" class="node">
<title>_34_Score</title>
<g id="a_node3"><a xlink:href="RollDice.dbquity#:~:text=entity%20Score" xlink:title=":RollDice\Table%3ame\Score&#10; &#45;&gt; RollDice.dbquity#:~:text=entity%20Score" target="_parent">
<polygon fill="none" stroke="black" points="649.88,-200 390.12,-200 390.12,-60 649.88,-60 649.88,-200"/>
<polyline fill="none" stroke="black" points="398.12,-166 641.88,-166"/>
<text text-anchor="start" x="502.75" y="-183.5" font-family="Arial" font-size="10.00">«entity»</text>
<text text-anchor="start" x="507.25" y="-171.5" font-family="Arial" font-size="10.00">Score</text>
<polyline fill="none" stroke="black" points="641.88,-166 398.12,-166"/>
<text text-anchor="start" x="401.12" y="-153.5" font-family="Arial" font-size="10.00">collection: Scores</text>
<text text-anchor="start" x="401.12" y="-141.5" font-family="Arial" font-size="10.00">identity: Player</text>
<polyline fill="none" stroke="black" points="641.88,-136 398.12,-136"/>
<text text-anchor="start" x="401.12" y="-123.5" font-family="Arial" font-size="10.00">=integer Player</text>
<text text-anchor="start" x="401.12" y="-111.5" font-family="Arial" font-size="10.00">integer Amount</text>
<polyline fill="none" stroke="black" points="641.88,-106 398.12,-106"/>
<text text-anchor="start" x="401.12" y="-93.5" font-family="Arial" font-size="10.00">NextAmount()</text>
<text text-anchor="start" x="401.12" y="-81.5" font-family="Arial" font-size="10.00"> &#160;if Amount &lt; Game.Target then Amount + random(1,6)</text>
<text text-anchor="start" x="401.12" y="-69.5" font-family="Arial" font-size="10.00"> &#160;&#160;&#160;&#160;&#160;&#160;&#160;&#160;&#160;&#160;&#160;&#160;&#160;&#160;&#160;&#160;&#160;&#160;&#160;&#160;&#160;&#160;&#160;&#160;&#160;else Amount &#45; random(1,6)</text>
</a>
</g>
</g>
<!-- _23_Game&#45;&#45;_34_Score -->
<g id="edge1" class="edge">
<title>_23_Game&#45;&#45;_34_Score</title>
<path fill="none" stroke="black" d="M520,-234.96C520,-223.23 520,-211.52 520,-200.41"/>
<polygon fill="black" stroke="black" points="520,-234.77 524,-240.77 520,-246.77 516,-240.77 520,-234.77"/>
<text text-anchor="start" x="520" y="-220.5" font-family="Arial" font-size="10.00">Scores</text>
<text text-anchor="middle" x="518.12" y="-202.91" font-family="Arial" font-size="10.00">*</text>
</g>
</g>
</svg>
