<?xml version="1.0" encoding="UTF-8" standalone="no"?>
<!DOCTYPE svg PUBLIC "-//W3C//DTD SVG 1.1//EN"
 "http://www.w3.org/Graphics/SVG/1.1/DTD/svg11.dtd">
<!-- Generated by graphviz version 9.0.0 (20230911.1827)
 -->
<!-- Pages: 1 -->
<svg width="971pt" height="748pt"
 viewBox="0.00 0.00 971.00 748.00" xmlns="http://www.w3.org/2000/svg" xmlns:xlink="http://www.w3.org/1999/xlink">
<g id="graph0" class="graph" transform="scale(1 1) rotate(0) translate(4 744)">
<polygon fill="white" stroke="none" points="-4,4 -4,-744 967,-744 967,4 -4,4"/>
<text text-anchor="start" x="246" y="-10.5" font-family="Arial" font-size="10.00">Dbquity CLI v0.90.2</text>
<text text-anchor="start" x="336" y="-10.5" font-family="Arial" font-size="10.00"> &#160;&#160;&#160;dot WebWordle * &#45;filter::WebWordle\ &#45;r &#45;d +m &#45;s &#45;x &#45;z &#160;&#160;&#160;</text>
<text text-anchor="start" x="595.5" y="-10.5" font-family="Arial" font-size="10.00">2026&#45;03&#45;01 10:18:05 +01:00</text>
<g id="clust1" class="cluster">
<title>cluster_18_WebWordle</title>
<g id="a_clust1"><a xlink:href="WebWordle.dbquity" xlink:title="model.dbquity.com/examples:WebWordle &#45;&gt; WebWordle.dbquity" target="_parent">
<polygon fill="none" stroke="black" points="8,-36 8,-732 955,-732 955,-36 8,-36"/>
<text text-anchor="middle" x="481.5" y="-718.5" font-family="Arial" font-size="10.00">site model.dbquity.com/examples:WebWordle v2.0.1</text>
</a>
</g>
</g>
<g id="clust2" class="cluster">
<title>cluster_21_Wordle</title>
<g id="a_clust2"><a xlink:href="WebWordle.dbquity#:~:text=area%20Wordle" xlink:title="model.dbquity.com/examples:WebWordle\Wordle &#45;&gt; WebWordle.dbquity#:~:text=area%20Wordle" target="_parent">
<polygon fill="none" stroke="black" points="16,-44 16,-704 947,-704 947,-44 16,-44"/>
</a>
</g>
</g>
<g id="clust3" class="cluster">
<title>cluster_49_Game</title>
<g id="a_clust3"><a xlink:href="WebWordle.dbquity#:~:text=entity%20Game" xlink:title="model.dbquity.com/examples:WebWordle\Wordlecluster_49_Gameame &#45;&gt; WebWordle.dbquity#:~:text=entity%20Game" target="_parent">
<polygon fill="none" stroke="black" stroke-dasharray="1,5" points="497,-52 497,-696 939,-696 939,-52 497,-52"/>
<text text-anchor="start" x="904.75" y="-58.5" font-family="Arial" font-size="10.00">Game</text>
</a>
</g>
</g>
<g id="clust4" class="cluster">
<title>cluster_64_Attempt</title>
<g id="a_clust4"><a xlink:href="WebWordle.dbquity#:~:text=entity%20Attempt" xlink:title="model.dbquity.com/examples:WebWordle\Wordlecluster_64_Attemptame\Attempt &#45;&gt; WebWordle.dbquity#:~:text=entity%20Attempt" target="_parent">
<polygon fill="none" stroke="black" stroke-dasharray="1,5" points="505,-80 505,-406 725,-406 725,-80 505,-80"/>
<text text-anchor="start" x="682.5" y="-86.5" font-family="Arial" font-size="10.00">Attempt</text>
</a>
</g>
</g>
<g id="clust5" class="cluster">
<title>cluster_92_KeyboardRow</title>
<g id="a_clust5"><a xlink:href="WebWordle.dbquity#:~:text=entity%20KeyboardRow" xlink:title="model.dbquity.com/examples:WebWordle\Wordlecluster_92_KeyboardRowame\KeyboardRow &#45;&gt; WebWordle.dbquity#:~:text=entity%20KeyboardRow" target="_parent">
<polygon fill="none" stroke="black" stroke-dasharray="1,5" points="733,-98 733,-388 931,-388 931,-98 733,-98"/>
<text text-anchor="start" x="863" y="-104.5" font-family="Arial" font-size="10.00">KeyboardRow</text>
</a>
</g>
</g>
<!-- _18_Wordle -->
<g id="node1" class="node">
<title>_18_Wordle</title>
<g id="a_node1"><a xlink:href="WebWordle.dbquity#:~:text=area%20Wordle" xlink:title="model.dbquity.com/examples:WebWordle\Wordle &#45;&gt; WebWordle.dbquity#:~:text=area%20Wordle" target="_parent">
<polygon fill="none" stroke="black" stroke-width="2" points="489.38,-601.03 355,-677.13 220.62,-601.03 220.74,-477.9 489.26,-477.9 489.38,-601.03"/>
<polyline fill="none" stroke="black" points="278.12,-612 431.88,-612"/>
<text text-anchor="start" x="328.75" y="-617.5" font-family="Arial" font-size="10.00">area Wordle</text>
<polyline fill="none" stroke="black" points="431.88,-612 278.12,-612"/>
<text text-anchor="start" x="281.12" y="-599.5" font-family="Arial" font-size="10.00">glyph: 🔠🤔</text>
<polyline fill="none" stroke="black" points="431.88,-594 278.12,-594"/>
<text text-anchor="start" x="281.12" y="-581.5" font-family="Arial" font-size="10.00">»|text WebPage</text>
<text text-anchor="start" x="281.12" y="-569.5" font-family="Arial" font-size="10.00">»|integer LetterCount</text>
<text text-anchor="start" x="281.12" y="-557.5" font-family="Arial" font-size="10.00">»|link GameDictionary : Dictionary</text>
<polyline fill="none" stroke="black" points="431.88,-552 278.12,-552"/>
<text text-anchor="start" x="281.12" y="-539.5" font-family="Arial" font-size="10.00">IsQualified(word)</text>
<polyline fill="none" stroke="black" points="431.88,-534 278.12,-534"/>
<text text-anchor="start" x="281.12" y="-521.5" font-family="Arial" font-size="10.00">OpenRecentGame()</text>
<text text-anchor="start" x="281.12" y="-509.5" font-family="Arial" font-size="10.00">Start()✓</text>
</a>
</g>
</g>
<!-- _21_Dictionary -->
<g id="node2" class="node">
<title>_21_Dictionary</title>
<g id="a_node2"><a xlink:href="WebWordle.dbquity#:~:text=entity%20Dictionary" xlink:title="model.dbquity.com/examples:WebWordle\Wordle\Dictionary&#10; &#45;&gt; WebWordle.dbquity#:~:text=entity%20Dictionary&#10;&#45; &#45; &#45; &#45; &#45; &#45; &#45; &#45; &#45; &#45; &#45; &#45; &#45; &#45; &#45; &#45; &#45; &#45; &#45; &#45; &#45; &#45; &#45; &#45; &#45; &#45; &#45; &#45; &#10;Den Danske Ordbog;dansk;https://ordn…&#10;Merriam&#45;Webster;American English;htt…" target="_parent">
<polygon fill="none" stroke="black" points="462.75,-341 337.25,-341 337.25,-165 462.75,-165 462.75,-341"/>
<polyline fill="none" stroke="black" points="345.25,-307 454.75,-307"/>
<text text-anchor="start" x="382.75" y="-324.5" font-family="Arial" font-size="10.00">«entity»</text>
<text text-anchor="start" x="377.12" y="-312.5" font-family="Arial" font-size="10.00">|Dictionary</text>
<polyline fill="none" stroke="black" points="454.75,-307 345.25,-307"/>
<text text-anchor="start" x="348.25" y="-294.5" font-family="Arial" font-size="10.00">derived</text>
<text text-anchor="start" x="348.25" y="-282.5" font-family="Arial" font-size="10.00">importance: additional</text>
<text text-anchor="start" x="348.25" y="-270.5" font-family="Arial" font-size="10.00">identity: Name</text>
<text text-anchor="start" x="348.25" y="-258.5" font-family="Arial" font-size="10.00">title: Name|&quot;|&quot;|Language</text>
<text text-anchor="start" x="348.25" y="-246.5" font-family="Arial" font-size="10.00">subtitle: LookupUrl</text>
<polyline fill="none" stroke="black" points="454.75,-241 345.25,-241"/>
<text text-anchor="start" x="348.25" y="-228.5" font-family="Arial" font-size="10.00">=text Name</text>
<text text-anchor="start" x="348.25" y="-216.5" font-family="Arial" font-size="10.00">|text Language</text>
<text text-anchor="start" x="348.25" y="-204.5" font-family="Arial" font-size="10.00">|text LookupUrl</text>
<text text-anchor="start" x="348.25" y="-192.5" font-family="Arial" font-size="10.00">|text FoundFragment</text>
<polyline fill="none" stroke="black" points="454.75,-187 345.25,-187"/>
<text text-anchor="start" x="348.25" y="-174.5" font-family="Arial" font-size="10.00">Contains(word)</text>
</a>
</g>
</g>
<!-- _18_Wordle&#45;&#45;_21_Dictionary -->
<g id="edge3" class="edge">
<title>_18_Wordle&#45;&#45;_21_Dictionary</title>
<path fill="none" stroke="black" stroke-dasharray="5,2" d="M367.77,-477.43C373.4,-438.4 380.04,-392.4 385.82,-352.31"/>
<polygon fill="black" stroke="black" points="387.21,-342.65 390.24,-353.19 386.67,-346.39 385.79,-352.55 385.79,-352.55 385.79,-352.55 386.67,-346.39 381.33,-351.91 387.21,-342.65"/>
<text text-anchor="start" x="312.39" y="-343.94" font-family="Arial" font-size="10.00">»GameDictionary</text>
</g>
<!-- _21_About -->
<g id="node3" class="node">
<title>_21_About</title>
<g id="a_node3"><a xlink:href="WebWordle.dbquity#:~:text=class%20About" xlink:title="model.dbquity.com/examples:WebWordle\Wordle\About &#45;&gt; WebWordle.dbquity#:~:text=class%20About" target="_parent">
<path fill="none" stroke="black" d="M190.38,-622C190.38,-622 35.62,-622 35.62,-622 29.62,-622 23.62,-616 23.62,-610 23.62,-610 23.62,-524 23.62,-524 23.62,-518 29.62,-512 35.62,-512 35.62,-512 190.38,-512 190.38,-512 196.38,-512 202.38,-518 202.38,-524 202.38,-524 202.38,-610 202.38,-610 202.38,-616 196.38,-622 190.38,-622"/>
<polyline fill="none" stroke="black" points="31.62,-588 194.38,-588"/>
<text text-anchor="start" x="96.12" y="-605.5" font-family="Arial" font-size="10.00">«class»</text>
<text text-anchor="start" x="100.25" y="-593.5" font-family="Arial" font-size="10.00">About</text>
<polyline fill="none" stroke="black" points="194.38,-588 31.62,-588"/>
<text text-anchor="start" x="34.62" y="-575.5" font-family="Arial" font-size="10.00">title: &quot;Out of&quot;||Occurrences||&quot;word …</text>
<polyline fill="none" stroke="black" points="194.38,-570 31.62,-570"/>
<text text-anchor="start" x="34.62" y="-557.5" font-family="Arial" font-size="10.00">text WebPage</text>
<text text-anchor="start" x="34.62" y="-545.5" font-family="Arial" font-size="10.00">integer LetterCount</text>
<text text-anchor="start" x="34.62" y="-533.5" font-family="Arial" font-size="10.00">integer Occurrences</text>
<text text-anchor="start" x="34.62" y="-521.5" font-family="Arial" font-size="10.00">integer Distincts</text>
</a>
</g>
</g>
<!-- _21_Game -->
<g id="node4" class="node">
<title>_21_Game</title>
<g id="a_node4"><a xlink:href="WebWordle.dbquity#:~:text=entity%20Game" xlink:title="model.dbquity.com/examples:WebWordle\Wordle%3ame &#45;&gt; WebWordle.dbquity#:~:text=entity%20Game" target="_parent">
<polygon fill="none" stroke="black" points="711.5,-688 518.5,-688 518.5,-446 711.5,-446 711.5,-688"/>
<polyline fill="none" stroke="black" points="526.5,-654 703.5,-654"/>
<text text-anchor="start" x="597.75" y="-671.5" font-family="Arial" font-size="10.00">«entity»</text>
<text text-anchor="start" x="600.38" y="-659.5" font-family="Arial" font-size="10.00">/Game</text>
<polyline fill="none" stroke="black" points="703.5,-654 526.5,-654"/>
<text text-anchor="start" x="529.5" y="-641.5" font-family="Arial" font-size="10.00">{Guessed &lt;&gt; false}</text>
<text text-anchor="start" x="529.5" y="-629.5" font-family="Arial" font-size="10.00">title: identity</text>
<text text-anchor="start" x="529.5" y="-617.5" font-family="Arial" font-size="10.00">readonly: true</text>
<text text-anchor="start" x="529.5" y="-605.5" font-family="Arial" font-size="10.00">oncreate: add(KeyboardRow, a:&#39;Q&#39;, b:…</text>
<polyline fill="none" stroke="black" points="703.5,-600 526.5,-600"/>
<text text-anchor="start" x="529.5" y="-587.5" font-family="Arial" font-size="10.00" fill="lightgray">/integer AttemptsAllowed</text>
<text text-anchor="start" x="529.5" y="-575.5" font-family="Arial" font-size="10.00">/integer AttemptCount</text>
<text text-anchor="start" x="529.5" y="-563.5" font-family="Arial" font-size="10.00">text TheWord</text>
<text text-anchor="start" x="529.5" y="-551.5" font-family="Arial" font-size="10.00" fill="lightgray">/integer LetterCount</text>
<text text-anchor="start" x="529.5" y="-539.5" font-family="Arial" font-size="10.00">/text Played</text>
<text text-anchor="start" x="529.5" y="-527.5" font-family="Arial" font-size="10.00" fill="lightgray">boolean Guessed</text>
<text text-anchor="start" x="529.5" y="-515.5" font-family="Arial" font-size="10.00">/text By</text>
<text text-anchor="start" x="529.5" y="-503.5" font-family="Arial" font-size="10.00">/text WebPage</text>
<text text-anchor="start" x="529.5" y="-491.5" font-family="Arial" font-size="10.00" fill="lightgray">About About</text>
<polyline fill="none" stroke="black" points="703.5,-486 526.5,-486"/>
<text text-anchor="start" x="529.5" y="-473.5" font-family="Arial" font-size="10.00">GuessIsValid()</text>
<polyline fill="none" stroke="black" points="703.5,-468 526.5,-468"/>
<text text-anchor="start" x="529.5" y="-455.5" font-family="Arial" font-size="10.00">Submit()✓</text>
</a>
</g>
</g>
<!-- _21_Game&#45;&#45;_21_Dictionary -->
<g id="edge4" class="edge">
<title>_21_Game&#45;&#45;_21_Dictionary</title>
<path fill="none" stroke="black" d="M528.68,-445.73C519.27,-432.37 509.89,-418.92 501,-406 488.71,-388.14 475.77,-368.96 463.41,-350.45"/>
<polygon fill="black" stroke="black" points="457.87,-342.15 467.17,-347.98 459.97,-345.3 463.42,-350.47 463.42,-350.47 463.42,-350.47 459.97,-345.3 459.68,-352.97 457.87,-342.15"/>
</g>
<!-- _49_Attempt -->
<g id="node5" class="node">
<title>_49_Attempt</title>
<g id="a_node5"><a xlink:href="WebWordle.dbquity#:~:text=entity%20Attempt" xlink:title="model.dbquity.com/examples:WebWordle\Wordle%3ame\Attempt &#45;&gt; WebWordle.dbquity#:~:text=entity%20Attempt" target="_parent">
<polygon fill="none" stroke="black" points="717.12,-398 512.88,-398 512.88,-108 717.12,-108 717.12,-398"/>
<polyline fill="none" stroke="black" points="520.88,-364 709.12,-364"/>
<text text-anchor="start" x="597.75" y="-381.5" font-family="Arial" font-size="10.00">«entity»</text>
<text text-anchor="start" x="597.75" y="-369.5" font-family="Arial" font-size="10.00">Attempt</text>
<polyline fill="none" stroke="black" points="709.12,-364 520.88,-364"/>
<text text-anchor="start" x="523.88" y="-351.5" font-family="Arial" font-size="10.00">importance: promoted</text>
<text text-anchor="start" x="523.88" y="-339.5" font-family="Arial" font-size="10.00">title: A|B|C|D|E|F|G|H</text>
<text text-anchor="start" x="523.88" y="-327.5" font-family="Arial" font-size="10.00">readonly: issaved or Game.Guessed &lt;&gt;…</text>
<text text-anchor="start" x="523.88" y="-315.5" font-family="Arial" font-size="10.00">undeletable: true</text>
<text text-anchor="start" x="523.88" y="-303.5" font-family="Arial" font-size="10.00">styling: A: GetStyle(A, 1), B: GetSt…</text>
<polyline fill="none" stroke="black" points="709.12,-298 520.88,-298"/>
<text text-anchor="start" x="523.88" y="-285.5" font-family="Arial" font-size="10.00">character A</text>
<text text-anchor="start" x="523.88" y="-273.5" font-family="Arial" font-size="10.00">character B</text>
<text text-anchor="start" x="523.88" y="-261.5" font-family="Arial" font-size="10.00">character C</text>
<text text-anchor="start" x="523.88" y="-249.5" font-family="Arial" font-size="10.00">character D</text>
<text text-anchor="start" x="523.88" y="-237.5" font-family="Arial" font-size="10.00">character E</text>
<text text-anchor="start" x="523.88" y="-225.5" font-family="Arial" font-size="10.00">character F</text>
<text text-anchor="start" x="523.88" y="-213.5" font-family="Arial" font-size="10.00">character G</text>
<text text-anchor="start" x="523.88" y="-201.5" font-family="Arial" font-size="10.00">character H</text>
<text text-anchor="start" x="523.88" y="-189.5" font-family="Arial" font-size="10.00" fill="lightgray">»boolean IsAWord</text>
<text text-anchor="start" x="523.88" y="-177.5" font-family="Arial" font-size="10.00">/text by</text>
<text text-anchor="start" x="523.88" y="-165.5" font-family="Arial" font-size="10.00" fill="lightgray">»|integer In</text>
<polyline fill="none" stroke="black" points="709.12,-160 520.88,-160"/>
<text text-anchor="start" x="523.88" y="-147.5" font-family="Arial" font-size="10.00">GetStyle(Letter, Index)</text>
<polyline fill="none" stroke="black" points="709.12,-142 520.88,-142"/>
<text text-anchor="start" x="523.88" y="-129.5" font-family="Arial" font-size="10.00">SetKey(key)</text>
<text text-anchor="start" x="523.88" y="-117.5" font-family="Arial" font-size="10.00">SetLetter(key)</text>
</a>
</g>
</g>
<!-- _21_Game&#45;&#45;_49_Attempt -->
<g id="edge1" class="edge">
<title>_21_Game&#45;&#45;_49_Attempt</title>
<path fill="none" stroke="black" d="M615,-432.98C615,-421.53 615,-409.91 615,-398.37"/>
<polygon fill="black" stroke="black" points="615,-432.92 619,-438.92 615,-444.92 611,-438.92 615,-432.92"/>
<text text-anchor="start" x="615" y="-418.5" font-family="Arial" font-size="10.00">Attempts</text>
<text text-anchor="middle" x="613.12" y="-400.87" font-family="Arial" font-size="10.00">*</text>
</g>
<!-- _49_KeyboardRow -->
<g id="node6" class="node">
<title>_49_KeyboardRow</title>
<g id="a_node6"><a xlink:href="WebWordle.dbquity#:~:text=entity%20KeyboardRow" xlink:title="model.dbquity.com/examples:WebWordle\Wordle%3ame\KeyboardRow &#45;&gt; WebWordle.dbquity#:~:text=entity%20KeyboardRow" target="_parent">
<polygon fill="none" stroke="black" points="923.25,-380 740.75,-380 740.75,-126 923.25,-126 923.25,-380"/>
<polyline fill="none" stroke="black" points="748.75,-346 915.25,-346"/>
<text text-anchor="start" x="814.75" y="-363.5" font-family="Arial" font-size="10.00">«entity»</text>
<text text-anchor="start" x="800.5" y="-351.5" font-family="Arial" font-size="10.00">/KeyboardRow</text>
<polyline fill="none" stroke="black" points="915.25,-346 748.75,-346"/>
<text text-anchor="start" x="751.75" y="-333.5" font-family="Arial" font-size="10.00">importance: promoted</text>
<text text-anchor="start" x="751.75" y="-321.5" font-family="Arial" font-size="10.00">readonly: true</text>
<text text-anchor="start" x="751.75" y="-309.5" font-family="Arial" font-size="10.00">styling: a: GetStyle(a), b: GetStyle…</text>
<polyline fill="none" stroke="black" points="915.25,-304 748.75,-304"/>
<text text-anchor="start" x="751.75" y="-291.5" font-family="Arial" font-size="10.00">character a</text>
<text text-anchor="start" x="751.75" y="-279.5" font-family="Arial" font-size="10.00">character b</text>
<text text-anchor="start" x="751.75" y="-267.5" font-family="Arial" font-size="10.00">character c</text>
<text text-anchor="start" x="751.75" y="-255.5" font-family="Arial" font-size="10.00">character d</text>
<text text-anchor="start" x="751.75" y="-243.5" font-family="Arial" font-size="10.00">character e</text>
<text text-anchor="start" x="751.75" y="-231.5" font-family="Arial" font-size="10.00">character f</text>
<text text-anchor="start" x="751.75" y="-219.5" font-family="Arial" font-size="10.00">character g</text>
<text text-anchor="start" x="751.75" y="-207.5" font-family="Arial" font-size="10.00">character h</text>
<text text-anchor="start" x="751.75" y="-195.5" font-family="Arial" font-size="10.00">character i</text>
<text text-anchor="start" x="751.75" y="-183.5" font-family="Arial" font-size="10.00">character j</text>
<polyline fill="none" stroke="black" points="915.25,-178 748.75,-178"/>
<text text-anchor="start" x="751.75" y="-165.5" font-family="Arial" font-size="10.00">GetStyle(key)</text>
<text text-anchor="start" x="751.75" y="-153.5" font-family="Arial" font-size="10.00">GoodOrBad(key)</text>
<polyline fill="none" stroke="black" points="915.25,-148 748.75,-148"/>
<text text-anchor="start" x="751.75" y="-135.5" font-family="Arial" font-size="10.00">SetKey(key)</text>
</a>
</g>
</g>
<!-- _21_Game&#45;&#45;_49_KeyboardRow -->
<g id="edge2" class="edge">
<title>_21_Game&#45;&#45;_49_KeyboardRow</title>
<path fill="none" stroke="black" d="M708.71,-435.01C715.6,-425.21 722.42,-415.46 729,-406 734.82,-397.62 740.8,-388.97 746.8,-380.23"/>
<polygon fill="black" stroke="black" points="708.64,-435.11 708.45,-442.31 701.73,-444.91 701.91,-437.71 708.64,-435.11"/>
<text text-anchor="start" x="719" y="-418.5" font-family="Arial" font-size="10.00">Keyboard</text>
<text text-anchor="middle" x="744.92" y="-382.73" font-family="Arial" font-size="10.00">*</text>
</g>
</g>
</svg>
