<?xml version="1.0" encoding="UTF-8" standalone="no"?>
<!DOCTYPE svg PUBLIC "-//W3C//DTD SVG 1.1//EN"
 "http://www.w3.org/Graphics/SVG/1.1/DTD/svg11.dtd">
<!-- Generated by graphviz version 9.0.0 (20230911.1827)
 -->
<!-- Pages: 1 -->
<svg width="774pt" height="784pt"
 viewBox="0.00 0.00 774.00 784.00" xmlns="http://www.w3.org/2000/svg" xmlns:xlink="http://www.w3.org/1999/xlink">
<g id="graph0" class="graph" transform="scale(1 1) rotate(0) translate(4 780)">
<polygon fill="white" stroke="none" points="-4,4 -4,-780 770,-780 770,4 -4,4"/>
<text text-anchor="start" x="147.5" y="-10.5" font-family="Arial" font-size="10.00">Dbquity CLI v0.90.8</text>
<text text-anchor="start" x="237.5" y="-10.5" font-family="Arial" font-size="10.00"> &#160;&#160;&#160;dot WebWordle * &#45;filter::WebWordle\ &#45;r &#45;d +m &#45;x &#45;s &#45;z &#160;&#160;&#160;</text>
<text text-anchor="start" x="497" y="-10.5" font-family="Arial" font-size="10.00">2026&#45;05&#45;31 23:50:36 +02:00</text>
<g id="clust1" class="cluster">
<title>cluster_18_WebWordle</title>
<g id="a_clust1"><a xlink:href="WebWordle.dbquity" xlink:title="model.dbquity.com/examples:WebWordle &#45;&gt; WebWordle.dbquity" target="_parent">
<polygon fill="none" stroke="black" points="8,-36 8,-768 758,-768 758,-36 8,-36"/>
<text text-anchor="middle" x="383" y="-754.5" font-family="Arial" font-size="10.00">site model.dbquity.com/examples:WebWordle v2.1.0</text>
</a>
</g>
</g>
<g id="clust2" class="cluster">
<title>cluster_21_Wordle</title>
<g id="a_clust2"><a xlink:href="WebWordle.dbquity#:~:text=area%20Wordle" xlink:title="model.dbquity.com/examples:WebWordle\Wordle &#45;&gt; WebWordle.dbquity#:~:text=area%20Wordle" target="_parent">
<polygon fill="none" stroke="black" points="16,-44 16,-740 750,-740 750,-44 16,-44"/>
</a>
</g>
</g>
<g id="clust3" class="cluster">
<title>cluster_43_Game</title>
<g id="a_clust3"><a xlink:href="WebWordle.dbquity#:~:text=entity%20Game" xlink:title="model.dbquity.com/examples:WebWordle\Wordlecluster_43_Gameame &#45;&gt; WebWordle.dbquity#:~:text=entity%20Game" target="_parent">
<polygon fill="none" stroke="black" stroke-dasharray="1,5" points="300,-52 300,-732 742,-732 742,-52 300,-52"/>
<text text-anchor="start" x="707.75" y="-58.5" font-family="Arial" font-size="10.00">Game</text>
</a>
</g>
</g>
<g id="clust5" class="cluster">
<title>cluster_86_KeyboardRow</title>
<g id="a_clust5"><a xlink:href="WebWordle.dbquity#:~:text=entity%20KeyboardRow" xlink:title="model.dbquity.com/examples:WebWordle\Wordlecluster_86_KeyboardRowame\KeyboardRow &#45;&gt; WebWordle.dbquity#:~:text=entity%20KeyboardRow" target="_parent">
<polygon fill="none" stroke="black" stroke-dasharray="1,5" points="536,-119 536,-391 734,-391 734,-119 536,-119"/>
<text text-anchor="start" x="666" y="-125.5" font-family="Arial" font-size="10.00">KeyboardRow</text>
</a>
</g>
</g>
<g id="clust4" class="cluster">
<title>cluster_57_Attempt</title>
<g id="a_clust4"><a xlink:href="WebWordle.dbquity#:~:text=entity%20Attempt" xlink:title="model.dbquity.com/examples:WebWordle\Wordlecluster_57_Attemptame\Attempt &#45;&gt; WebWordle.dbquity#:~:text=entity%20Attempt" target="_parent">
<polygon fill="none" stroke="black" stroke-dasharray="1,5" points="308,-80 308,-430 528,-430 528,-80 308,-80"/>
<text text-anchor="start" x="485.5" y="-86.5" font-family="Arial" font-size="10.00">Attempt</text>
</a>
</g>
</g>
<!-- _18_Wordle -->
<g id="node1" class="node">
<title>_18_Wordle</title>
<g id="a_node1"><a xlink:href="WebWordle.dbquity#:~:text=area%20Wordle" xlink:title="model.dbquity.com/examples:WebWordle\Wordle &#45;&gt; WebWordle.dbquity#:~:text=area%20Wordle" target="_parent">
<polygon fill="none" stroke="black" stroke-width="2" points="292.38,-631.03 158,-707.13 23.62,-631.03 23.74,-507.9 292.26,-507.9 292.38,-631.03"/>
<polyline fill="none" stroke="black" points="81.12,-642 234.88,-642"/>
<text text-anchor="start" x="131.75" y="-647.5" font-family="Arial" font-size="10.00">area Wordle</text>
<polyline fill="none" stroke="black" points="234.88,-642 81.12,-642"/>
<text text-anchor="start" x="84.12" y="-629.5" font-family="Arial" font-size="10.00">glyph: &quot;🔠🤔&quot;</text>
<polyline fill="none" stroke="black" points="234.88,-624 81.12,-624"/>
<text text-anchor="start" x="84.12" y="-611.5" font-family="Arial" font-size="10.00">»|text WebPage</text>
<text text-anchor="start" x="84.12" y="-599.5" font-family="Arial" font-size="10.00">»|integer LetterCount</text>
<text text-anchor="start" x="84.12" y="-587.5" font-family="Arial" font-size="10.00">»|link GameDictionary : Dictionary</text>
<polyline fill="none" stroke="black" points="234.88,-582 81.12,-582"/>
<text text-anchor="start" x="84.12" y="-569.5" font-family="Arial" font-size="10.00">IsQualified(word)</text>
<polyline fill="none" stroke="black" points="234.88,-564 81.12,-564"/>
<text text-anchor="start" x="84.12" y="-551.5" font-family="Arial" font-size="10.00">OpenRecentGame()</text>
<text text-anchor="start" x="84.12" y="-539.5" font-family="Arial" font-size="10.00">Start()✓</text>
</a>
</g>
</g>
<!-- _21_Dictionary -->
<g id="node2" class="node">
<title>_21_Dictionary</title>
<g id="a_node2"><a xlink:href="WebWordle.dbquity#:~:text=entity%20Dictionary" xlink:title="model.dbquity.com/examples:WebWordle\Wordle\Dictionary&#10; &#45;&gt; WebWordle.dbquity#:~:text=entity%20Dictionary&#10;&#45; &#45; &#45; &#45; &#45; &#45; &#45; &#45; &#45; &#45; &#45; &#45; &#45; &#45; &#45; &#45; &#45; &#45; &#45; &#45; &#45; &#45; &#45; &#45; &#45; &#45; &#45; &#45; &#10;Den Danske Ordbog;dansk;https://ordn…&#10;Merriam&#45;Webster;American English;htt…" target="_parent">
<polygon fill="none" stroke="black" points="265.75,-353 140.25,-353 140.25,-177 265.75,-177 265.75,-353"/>
<polyline fill="none" stroke="black" points="148.25,-319 257.75,-319"/>
<text text-anchor="start" x="185.75" y="-336.5" font-family="Arial" font-size="10.00">«entity»</text>
<text text-anchor="start" x="180.12" y="-324.5" font-family="Arial" font-size="10.00">|Dictionary</text>
<polyline fill="none" stroke="black" points="257.75,-319 148.25,-319"/>
<text text-anchor="start" x="151.25" y="-306.5" font-family="Arial" font-size="10.00">derived</text>
<text text-anchor="start" x="151.25" y="-294.5" font-family="Arial" font-size="10.00">importance: additional</text>
<text text-anchor="start" x="151.25" y="-282.5" font-family="Arial" font-size="10.00">identity: Name</text>
<text text-anchor="start" x="151.25" y="-270.5" font-family="Arial" font-size="10.00">title: Name|&quot;|&quot;|Language</text>
<text text-anchor="start" x="151.25" y="-258.5" font-family="Arial" font-size="10.00">subtitle: LookupUrl</text>
<polyline fill="none" stroke="black" points="257.75,-253 148.25,-253"/>
<text text-anchor="start" x="151.25" y="-240.5" font-family="Arial" font-size="10.00">=text Name</text>
<text text-anchor="start" x="151.25" y="-228.5" font-family="Arial" font-size="10.00">|text Language</text>
<text text-anchor="start" x="151.25" y="-216.5" font-family="Arial" font-size="10.00">|text LookupUrl</text>
<text text-anchor="start" x="151.25" y="-204.5" font-family="Arial" font-size="10.00">|text FoundFragment</text>
<polyline fill="none" stroke="black" points="257.75,-199 148.25,-199"/>
<text text-anchor="start" x="151.25" y="-186.5" font-family="Arial" font-size="10.00">Contains(word)</text>
</a>
</g>
</g>
<!-- _18_Wordle&#45;&#45;_21_Dictionary -->
<g id="edge3" class="edge">
<title>_18_Wordle&#45;&#45;_21_Dictionary</title>
<path fill="none" stroke="black" stroke-dasharray="5,2" d="M170.06,-507.57C176.08,-463.38 183.39,-409.79 189.59,-364.32"/>
<polygon fill="black" stroke="black" points="190.94,-354.46 194.05,-364.97 190.43,-358.2 189.59,-364.36 189.59,-364.36 189.59,-364.36 190.43,-358.2 185.13,-363.76 190.94,-354.46"/>
<text text-anchor="start" x="116.1" y="-355.75" font-family="Arial" font-size="10.00">»GameDictionary</text>
</g>
<!-- _21_Game -->
<g id="node3" class="node">
<title>_21_Game</title>
<g id="a_node3"><a xlink:href="WebWordle.dbquity#:~:text=entity%20Game" xlink:title="model.dbquity.com/examples:WebWordle\Wordle%3ame &#45;&gt; WebWordle.dbquity#:~:text=entity%20Game" target="_parent">
<polygon fill="none" stroke="black" points="514.5,-724 321.5,-724 321.5,-470 514.5,-470 514.5,-724"/>
<polyline fill="none" stroke="black" points="329.5,-690 506.5,-690"/>
<text text-anchor="start" x="400.75" y="-707.5" font-family="Arial" font-size="10.00">«entity»</text>
<text text-anchor="start" x="403.38" y="-695.5" font-family="Arial" font-size="10.00">/Game</text>
<polyline fill="none" stroke="black" points="506.5,-690 329.5,-690"/>
<text text-anchor="start" x="332.5" y="-677.5" font-family="Arial" font-size="10.00">{Guessed &lt;&gt; false}</text>
<text text-anchor="start" x="332.5" y="-665.5" font-family="Arial" font-size="10.00">title: identity</text>
<text text-anchor="start" x="332.5" y="-653.5" font-family="Arial" font-size="10.00">subtitle: WebPage|&quot;|&quot;|created|&quot;|&quot;|At…</text>
<text text-anchor="start" x="332.5" y="-641.5" font-family="Arial" font-size="10.00">readonly: true</text>
<text text-anchor="start" x="332.5" y="-629.5" font-family="Arial" font-size="10.00">oncreate: add(KeyboardRow, a:&#39;Q&#39;, b:…</text>
<polyline fill="none" stroke="black" points="506.5,-624 329.5,-624"/>
<text text-anchor="start" x="332.5" y="-611.5" font-family="Arial" font-size="10.00" fill="lightgray">/integer AttemptsAllowed</text>
<text text-anchor="start" x="332.5" y="-599.5" font-family="Arial" font-size="10.00">/integer AttemptCount</text>
<text text-anchor="start" x="332.5" y="-587.5" font-family="Arial" font-size="10.00">text TheWord</text>
<text text-anchor="start" x="332.5" y="-575.5" font-family="Arial" font-size="10.00" fill="lightgray">/integer LetterCount</text>
<text text-anchor="start" x="332.5" y="-563.5" font-family="Arial" font-size="10.00">/text Played</text>
<text text-anchor="start" x="332.5" y="-551.5" font-family="Arial" font-size="10.00" fill="lightgray">boolean Guessed</text>
<text text-anchor="start" x="332.5" y="-539.5" font-family="Arial" font-size="10.00">/text By</text>
<text text-anchor="start" x="332.5" y="-527.5" font-family="Arial" font-size="10.00" fill="lightgray">text WebPage</text>
<text text-anchor="start" x="332.5" y="-515.5" font-family="Arial" font-size="10.00" fill="lightgray">text About</text>
<polyline fill="none" stroke="black" points="506.5,-510 329.5,-510"/>
<text text-anchor="start" x="332.5" y="-497.5" font-family="Arial" font-size="10.00">GuessIsValid()</text>
<polyline fill="none" stroke="black" points="506.5,-492 329.5,-492"/>
<text text-anchor="start" x="332.5" y="-479.5" font-family="Arial" font-size="10.00">Submit()✓</text>
</a>
</g>
</g>
<!-- _21_Game&#45;&#45;_21_Dictionary -->
<g id="edge4" class="edge">
<title>_21_Game&#45;&#45;_21_Dictionary</title>
<path fill="none" stroke="black" d="M330.21,-469.55C321.26,-456.26 312.39,-442.89 304,-430 289.96,-408.42 275.22,-384.98 261.49,-362.76"/>
<polygon fill="black" stroke="black" points="256.31,-354.36 265.38,-360.51 258.29,-357.58 261.55,-362.87 261.55,-362.87 261.55,-362.87 258.29,-357.58 257.72,-365.23 256.31,-354.36"/>
</g>
<!-- _43_Attempt -->
<g id="node4" class="node">
<title>_43_Attempt</title>
<g id="a_node4"><a xlink:href="WebWordle.dbquity#:~:text=entity%20Attempt" xlink:title="model.dbquity.com/examples:WebWordle\Wordle%3ame\Attempt &#45;&gt; WebWordle.dbquity#:~:text=entity%20Attempt" target="_parent">
<polygon fill="none" stroke="black" points="520.12,-422 315.88,-422 315.88,-108 520.12,-108 520.12,-422"/>
<polyline fill="none" stroke="black" points="323.88,-388 512.12,-388"/>
<text text-anchor="start" x="400.75" y="-405.5" font-family="Arial" font-size="10.00">«entity»</text>
<text text-anchor="start" x="400.75" y="-393.5" font-family="Arial" font-size="10.00">Attempt</text>
<polyline fill="none" stroke="black" points="512.12,-388 323.88,-388"/>
<text text-anchor="start" x="326.88" y="-375.5" font-family="Arial" font-size="10.00">importance: promoted</text>
<text text-anchor="start" x="326.88" y="-363.5" font-family="Arial" font-size="10.00">title: A|B|C|D|E|F|G|H</text>
<text text-anchor="start" x="326.88" y="-351.5" font-family="Arial" font-size="10.00">readonly: issaved or Game.Guessed &lt;&gt;…</text>
<text text-anchor="start" x="326.88" y="-339.5" font-family="Arial" font-size="10.00">undeletable: true</text>
<text text-anchor="start" x="326.88" y="-327.5" font-family="Arial" font-size="10.00">styling: A: GetStyle(A, 1), B: GetSt…</text>
<polyline fill="none" stroke="black" points="512.12,-322 323.88,-322"/>
<text text-anchor="start" x="326.88" y="-309.5" font-family="Arial" font-size="10.00">character A</text>
<text text-anchor="start" x="326.88" y="-297.5" font-family="Arial" font-size="10.00">character B</text>
<text text-anchor="start" x="326.88" y="-285.5" font-family="Arial" font-size="10.00">character C</text>
<text text-anchor="start" x="326.88" y="-273.5" font-family="Arial" font-size="10.00">character D</text>
<text text-anchor="start" x="326.88" y="-261.5" font-family="Arial" font-size="10.00">character E</text>
<text text-anchor="start" x="326.88" y="-249.5" font-family="Arial" font-size="10.00">character F</text>
<text text-anchor="start" x="326.88" y="-237.5" font-family="Arial" font-size="10.00">character G</text>
<text text-anchor="start" x="326.88" y="-225.5" font-family="Arial" font-size="10.00">character H</text>
<text text-anchor="start" x="326.88" y="-213.5" font-family="Arial" font-size="10.00" fill="lightgray">»boolean IsAWord</text>
<text text-anchor="start" x="326.88" y="-201.5" font-family="Arial" font-size="10.00">/text by</text>
<text text-anchor="start" x="326.88" y="-189.5" font-family="Arial" font-size="10.00" fill="lightgray">»|integer In</text>
<polyline fill="none" stroke="black" points="512.12,-184 323.88,-184"/>
<text text-anchor="start" x="326.88" y="-171.5" font-family="Arial" font-size="10.00">GetStyle(Letter, Index)</text>
<polyline fill="none" stroke="black" points="512.12,-166 323.88,-166"/>
<text text-anchor="start" x="326.88" y="-153.5" font-family="Arial" font-size="10.00">Submit()</text>
<text text-anchor="start" x="326.88" y="-141.5" font-family="Arial" font-size="10.00">GoLeft()</text>
<text text-anchor="start" x="326.88" y="-129.5" font-family="Arial" font-size="10.00">GoRight()</text>
<text text-anchor="start" x="326.88" y="-117.5" font-family="Arial" font-size="10.00">SetLetter(key)</text>
</a>
</g>
</g>
<!-- _21_Game&#45;&#45;_43_Attempt -->
<g id="edge1" class="edge">
<title>_21_Game&#45;&#45;_43_Attempt</title>
<path fill="none" stroke="black" d="M418,-456.97C418,-445.5 418,-433.87 418,-422.29"/>
<polygon fill="black" stroke="black" points="418,-456.93 422,-462.93 418,-468.93 414,-462.93 418,-456.93"/>
<text text-anchor="start" x="418" y="-442.5" font-family="Arial" font-size="10.00">Attempts</text>
<text text-anchor="middle" x="416.12" y="-424.79" font-family="Arial" font-size="10.00">*</text>
</g>
<!-- _43_KeyboardRow -->
<g id="node5" class="node">
<title>_43_KeyboardRow</title>
<g id="a_node5"><a xlink:href="WebWordle.dbquity#:~:text=entity%20KeyboardRow" xlink:title="model.dbquity.com/examples:WebWordle\Wordle%3ame\KeyboardRow &#45;&gt; WebWordle.dbquity#:~:text=entity%20KeyboardRow" target="_parent">
<polygon fill="none" stroke="black" points="726.25,-383 543.75,-383 543.75,-147 726.25,-147 726.25,-383"/>
<polyline fill="none" stroke="black" points="551.75,-349 718.25,-349"/>
<text text-anchor="start" x="617.75" y="-366.5" font-family="Arial" font-size="10.00">«entity»</text>
<text text-anchor="start" x="603.5" y="-354.5" font-family="Arial" font-size="10.00">/KeyboardRow</text>
<polyline fill="none" stroke="black" points="718.25,-349 551.75,-349"/>
<text text-anchor="start" x="554.75" y="-336.5" font-family="Arial" font-size="10.00">importance: promoted</text>
<text text-anchor="start" x="554.75" y="-324.5" font-family="Arial" font-size="10.00">readonly: true</text>
<text text-anchor="start" x="554.75" y="-312.5" font-family="Arial" font-size="10.00">styling: a: GetStyle(a), b: GetStyle…</text>
<polyline fill="none" stroke="black" points="718.25,-307 551.75,-307"/>
<text text-anchor="start" x="554.75" y="-294.5" font-family="Arial" font-size="10.00">character a</text>
<text text-anchor="start" x="554.75" y="-282.5" font-family="Arial" font-size="10.00">character b</text>
<text text-anchor="start" x="554.75" y="-270.5" font-family="Arial" font-size="10.00">character c</text>
<text text-anchor="start" x="554.75" y="-258.5" font-family="Arial" font-size="10.00">character d</text>
<text text-anchor="start" x="554.75" y="-246.5" font-family="Arial" font-size="10.00">character e</text>
<text text-anchor="start" x="554.75" y="-234.5" font-family="Arial" font-size="10.00">character f</text>
<text text-anchor="start" x="554.75" y="-222.5" font-family="Arial" font-size="10.00">character g</text>
<text text-anchor="start" x="554.75" y="-210.5" font-family="Arial" font-size="10.00">character h</text>
<text text-anchor="start" x="554.75" y="-198.5" font-family="Arial" font-size="10.00">character i</text>
<text text-anchor="start" x="554.75" y="-186.5" font-family="Arial" font-size="10.00">character j</text>
<polyline fill="none" stroke="black" points="718.25,-181 551.75,-181"/>
<text text-anchor="start" x="554.75" y="-168.5" font-family="Arial" font-size="10.00">GetStyle(key)</text>
<text text-anchor="start" x="554.75" y="-156.5" font-family="Arial" font-size="10.00">GoodOrBad(key)</text>
</a>
</g>
</g>
<!-- _21_Game&#45;&#45;_43_KeyboardRow -->
<g id="edge2" class="edge">
<title>_21_Game&#45;&#45;_43_KeyboardRow</title>
<path fill="none" stroke="black" d="M512.58,-459.22C519.2,-449.36 525.73,-439.55 532,-430 541.88,-414.97 552.12,-399.05 562.16,-383.29"/>
<polygon fill="black" stroke="black" points="512.58,-459.23 512.54,-466.44 505.87,-469.18 505.91,-461.97 512.58,-459.23"/>
<text text-anchor="start" x="523" y="-442.5" font-family="Arial" font-size="10.00">Keyboard</text>
<text text-anchor="middle" x="560.28" y="-385.79" font-family="Arial" font-size="10.00">*</text>
</g>
</g>
</svg>
